<?xml version="1.0" standalone="no"?>
<!DOCTYPE svg PUBLIC "-//W3C//DTD SVG 20010904//EN"
 "http://www.w3.org/TR/2001/REC-SVG-20010904/DTD/svg10.dtd">
<svg version="1.0" xmlns="http://www.w3.org/2000/svg"
 width="684.000000pt" height="684.000000pt" viewBox="0 0 684.000000 684.000000"
 preserveAspectRatio="xMidYMid meet">

<g transform="translate(0.000000,684.000000) scale(0.100000,-0.100000)"
fill="#000000" stroke="none">
<path d="M1420 6829 c-266 -26 -537 -126 -755 -280 -115 -82 -302 -269 -384
-384 -107 -153 -200 -363 -245 -559 -36 -151 -37 -261 -34 -2286 l4 -1995 26
-110 c89 -376 284 -683 573 -907 181 -141 355 -227 574 -284 l93 -24 2155 0
c2123 0 2156 0 2233 20 190 48 343 116 496 218 339 227 577 575 665 971 18 83
19 160 19 2196 0 2036 -1 2113 -19 2196 -124 559 -555 1018 -1101 1174 -220
63 -61 59 -2235 61 -1089 1 -2018 -2 -2065 -7z m267 -945 c106 -82 259 -246
333 -361 l65 -100 65 -18 c123 -35 345 -112 443 -154 284 -121 348 -215 347
-511 0 -83 -6 -167 -16 -217 l-17 -83 29 -37 c24 -32 504 -640 749 -948 39
-49 303 -382 585 -740 283 -357 717 -907 966 -1221 248 -314 457 -580 463
-592 29 -55 -6 -118 -72 -129 -34 -5 -40 -2 -80 38 -23 24 -244 301 -492 614
-247 314 -629 797 -849 1075 -220 278 -447 565 -505 639 -58 73 -176 222 -261
330 -86 108 -273 345 -417 527 l-262 331 -103 7 c-280 18 -489 111 -547 245
-48 112 -84 319 -103 591 l-12 175 -84 90 c-97 104 -184 230 -252 365 -51 103
-66 140 -54 140 4 0 40 -25 81 -56z m1866 -179 c17 -74 21 -130 22 -306 l2
-217 85 -118 c116 -161 220 -338 257 -434 68 -174 21 -328 -156 -519 -83 -90
-164 -149 -215 -157 -53 -9 -127 35 -228 136 -170 168 -244 321 -218 447 20
95 146 336 290 551 l70 104 -13 89 c-20 147 -2 386 41 539 l13 45 15 -35 c8
-19 24 -75 35 -125z m665 -615 c45 -182 61 -391 44 -540 l-10 -85 77 -105
c132 -180 220 -323 285 -462 75 -159 80 -228 30 -351 -83 -207 -343 -462 -449
-443 -118 22 -367 287 -436 464 -27 70 -29 157 -5 227 44 124 182 373 314 565
35 52 65 100 65 105 -1 6 -6 69 -13 141 -16 177 6 418 52 563 13 43 19 33 46
-79z m706 -862 c58 -201 79 -433 56 -603 -8 -59 -8 -61 33 -120 249 -361 354
-548 377 -668 14 -77 -1 -150 -52 -252 -67 -136 -235 -317 -340 -369 -50 -24
-60 -26 -95 -17 -107 29 -309 232 -393 395 -56 108 -67 169 -47 252 31 123
129 309 305 578 l84 128 -11 93 c-15 127 -14 270 4 391 18 131 44 244 56 244
4 0 15 -24 23 -52z m-2183 -103 c76 -38 201 -170 266 -279 60 -101 98 -205 89
-242 -15 -59 -145 -163 -279 -223 -166 -75 -299 -91 -392 -47 -96 45 -298 230
-490 450 l-60 68 -99 15 c-128 19 -283 70 -426 140 -109 54 -113 57 -85 65 41
12 280 -8 385 -31 47 -11 123 -33 169 -50 l85 -31 165 59 c267 95 469 144 567
137 29 -3 75 -16 105 -31z m666 -828 c114 -76 223 -207 302 -362 55 -109 67
-165 44 -212 -37 -78 -225 -202 -396 -261 -84 -29 -117 -36 -187 -36 -90 -1
-124 9 -195 53 -115 73 -283 233 -464 444 -46 53 -87 97 -91 97 -40 0 -258 46
-336 71 -102 32 -304 124 -339 153 -19 16 -11 17 145 12 187 -6 301 -26 459
-81 55 -19 105 -35 112 -35 6 0 78 24 160 54 304 111 486 156 619 153 l95 -2
72 -48z m661 -873 c184 -75 444 -456 408 -599 -13 -51 -135 -150 -271 -217
-150 -75 -294 -108 -389 -88 -130 27 -330 195 -585 492 -86 101 -86 100 -186
113 -148 18 -392 102 -534 182 l-66 38 115 3 c179 5 372 -29 543 -94 58 -22
74 -25 101 -16 17 6 109 38 205 71 364 128 548 160 659 115z"/>
</g>
</svg>
