<?xml version="1.0" standalone="no"?>
<!DOCTYPE svg PUBLIC "-//W3C//DTD SVG 20010904//EN"
 "http://www.w3.org/TR/2001/REC-SVG-20010904/DTD/svg10.dtd">
<svg version="1.0" xmlns="http://www.w3.org/2000/svg"
 width="684.000000pt" height="684.000000pt" viewBox="0 0 684.000000 684.000000"
 preserveAspectRatio="xMidYMid meet">

<g transform="translate(0.000000,684.000000) scale(0.100000,-0.100000)"
fill="#000000" stroke="none">
<path d="M1425 6833 c-85 -8 -260 -45 -348 -74 -51 -16 -150 -58 -222 -94
-433 -214 -743 -624 -835 -1103 -20 -101 -20 -148 -20 -2160 l0 -2057 24 -115
c57 -271 174 -507 359 -721 189 -220 483 -401 777 -479 l115 -30 2140 0 2140
0 102 25 c585 142 1042 618 1162 1212 21 100 21 120 21 2167 0 2039 0 2066
-20 2171 -38 197 -119 387 -242 572 -87 131 -261 308 -393 402 -175 123 -409
221 -643 268 -81 16 -222 18 -2082 19 -1097 0 -2013 -1 -2035 -3z m1390 -2123
c639 -60 1394 -341 1947 -724 252 -176 571 -473 720 -673 185 -247 278 -470
282 -673 1 -93 0 -97 -42 -184 -23 -49 -65 -126 -91 -170 -27 -45 -60 -101
-74 -126 -19 -34 -34 -48 -65 -59 -37 -14 -44 -13 -115 13 -102 37 -201 96
-440 261 -111 77 -251 168 -312 202 -233 134 -516 213 -716 200 -187 -12 -321
-87 -567 -318 -309 -291 -505 -359 -848 -296 -409 76 -753 202 -1004 368 -177
117 -359 327 -394 453 -46 162 -18 346 90 605 163 388 417 736 671 917 248
177 551 242 958 204z"/>
<path d="M2440 4603 c-108 -89 -210 -186 -250 -240 -58 -76 -68 -85 -91 -72
-46 24 -20 68 130 223 l106 108 -44 -7 c-110 -18 -276 -91 -386 -170 -162
-115 -350 -332 -471 -540 l-29 -50 30 23 c99 75 179 128 245 162 150 75 337
129 529 151 151 17 521 6 681 -20 588 -95 1182 -314 1655 -608 506 -315 890
-749 1000 -1127 14 -50 27 -92 29 -94 9 -9 105 201 111 243 17 108 -37 309
-127 472 -149 271 -503 634 -848 869 l-94 64 -39 -37 c-22 -21 -59 -68 -84
-105 -34 -53 -49 -68 -68 -68 -58 0 -29 78 73 198 25 30 41 57 36 62 -17 16
-188 110 -200 110 -18 0 -89 -84 -141 -167 -47 -77 -73 -91 -93 -53 -9 17 -5
32 24 83 19 34 55 87 80 117 26 30 46 58 46 61 0 3 -30 21 -67 39 -289 141
-598 252 -904 324 l-104 25 -31 -30 c-17 -16 -46 -56 -64 -89 -35 -62 -61 -80
-85 -60 -23 19 -18 37 31 117 26 40 44 76 42 78 -3 3 -47 11 -99 19 l-94 14
-35 -28 c-52 -42 -87 -81 -144 -162 -41 -57 -58 -73 -77 -73 -40 0 -36 38 10
109 23 35 61 85 86 112 25 27 45 50 45 51 0 2 -62 3 -137 3 l-138 0 -45 -37z"/>
<path d="M1776 3698 c-26 -40 -65 -194 -76 -300 -11 -112 -2 -221 26 -317 65
-226 299 -473 580 -615 142 -72 220 -84 212 -35 -4 26 -10 30 -103 65 -270
103 -544 368 -619 599 -43 135 -39 306 12 475 33 110 34 144 5 148 -14 2 -27
-5 -37 -20z"/>
<path d="M3322 3596 c-147 -48 -228 -198 -189 -349 22 -82 71 -158 150 -234
81 -76 109 -92 132 -73 25 21 18 35 -57 101 -84 75 -142 160 -159 233 -21 96
26 196 115 244 80 42 205 7 308 -86 109 -101 149 -189 151 -332 2 -88 4 -95
23 -98 36 -5 47 22 47 116 -1 146 -50 251 -171 363 -112 105 -246 149 -350
115z"/>
<path d="M4082 3558 c-6 -6 -12 -18 -12 -26 0 -7 42 -61 93 -120 239 -276 329
-424 345 -567 6 -46 11 -61 25 -63 73 -14 58 139 -28 294 -71 127 -359 485
-396 492 -8 1 -20 -3 -27 -10z"/>
<path d="M2443 3525 c-18 -49 52 -287 119 -399 55 -93 164 -206 264 -272 98
-65 167 -92 189 -74 27 23 18 50 -22 66 -65 26 -116 56 -179 105 -176 139
-254 281 -310 567 -5 26 -51 31 -61 7z"/>
<path d="M4802 3108 c-22 -22 -13 -38 67 -123 159 -168 217 -282 245 -479 12
-83 27 -105 61 -92 16 6 17 15 12 84 -12 141 -55 261 -140 387 -46 68 -204
235 -221 235 -7 0 -17 -5 -24 -12z"/>
</g>
</svg>
