<?xml version="1.0" standalone="no"?>
<!DOCTYPE svg PUBLIC "-//W3C//DTD SVG 20010904//EN"
 "http://www.w3.org/TR/2001/REC-SVG-20010904/DTD/svg10.dtd">
<svg version="1.0" xmlns="http://www.w3.org/2000/svg"
 width="684.000000pt" height="684.000000pt" viewBox="0 0 684.000000 684.000000"
 preserveAspectRatio="xMidYMid meet">

<g transform="translate(0.000000,684.000000) scale(0.100000,-0.100000)"
fill="#000000" stroke="none">
<path d="M1325 6824 c-335 -52 -597 -182 -841 -417 -229 -220 -364 -448 -447
-756 l-32 -116 -3 -2075 c-3 -2320 -8 -2160 68 -2392 179 -544 631 -944 1190
-1053 64 -13 371 -15 2170 -15 2028 0 2098 1 2182 20 300 66 554 205 774 425
225 224 373 495 434 795 20 96 20 135 20 2173 0 1852 -2 2084 -16 2158 -60
318 -237 634 -479 855 -211 193 -427 307 -725 382 l-105 26 -2050 2 c-1719 2
-2064 0 -2140 -12z m2918 -1645 c126 -9 148 -14 260 -56 250 -94 498 -219 657
-331 187 -132 371 -380 560 -753 l72 -142 -13 -41 c-20 -62 -236 -485 -314
-616 -381 -640 -857 -1175 -1335 -1502 -125 -86 -150 -98 -204 -98 -118 0
-440 98 -746 227 -198 83 -585 282 -793 407 -370 222 -595 393 -848 645 -269
268 -411 485 -466 709 -25 102 -22 277 6 377 34 123 52 148 186 252 268 209
612 416 917 552 517 230 965 338 1563 374 124 8 372 6 498 -4z"/>
<path d="M3703 5033 c-29 -2 -53 -6 -53 -9 0 -3 19 -42 42 -86 64 -123 119
-176 251 -244 139 -70 221 -128 281 -196 33 -38 46 -60 44 -78 -6 -49 -39 -36
-124 48 -66 65 -99 88 -202 141 -67 35 -140 76 -162 92 -52 37 -121 132 -172
234 -22 44 -42 82 -43 83 -6 7 -222 -20 -236 -29 -11 -7 -2 -33 45 -126 49
-97 72 -131 130 -189 60 -60 89 -79 191 -128 147 -71 224 -125 304 -212 61
-67 71 -90 49 -112 -19 -19 -44 -14 -61 11 -24 35 -118 126 -162 157 -22 15
-99 57 -171 94 -72 36 -152 85 -178 107 -63 56 -125 145 -180 259 -66 137 -59
129 -103 120 -195 -39 -253 -54 -253 -65 0 -7 27 -67 60 -134 126 -256 194
-322 455 -445 129 -61 206 -115 302 -213 79 -79 103 -119 88 -142 -16 -27 -51
-8 -123 69 -96 104 -161 149 -362 251 -181 92 -247 145 -328 266 -44 65 -130
232 -153 296 -8 23 -19 37 -30 37 -9 0 -81 -20 -158 -45 -103 -33 -141 -50
-141 -62 0 -23 93 -209 141 -283 79 -120 139 -168 319 -258 194 -98 262 -145
364 -253 61 -65 76 -87 74 -108 -2 -19 -9 -27 -28 -29 -20 -2 -33 7 -64 47
-80 106 -181 178 -390 281 -226 111 -308 197 -431 453 l-65 135 -88 -35 c-210
-84 -534 -257 -761 -406 l-93 -62 38 -7 c22 -4 88 -14 148 -23 526 -79 1142
-432 1567 -898 408 -447 716 -978 785 -1356 14 -78 19 -89 33 -81 38 21 246
194 366 306 119 111 235 235 377 404 225 266 527 735 689 1068 91 189 94 198
79 240 -44 123 -258 469 -367 594 -128 148 -317 269 -633 406 -219 94 -277
110 -442 118 -82 4 -148 4 -148 0 0 -4 9 -25 20 -47 37 -71 88 -117 190 -169
117 -60 213 -148 208 -189 -5 -47 -41 -39 -100 22 -37 37 -84 69 -156 106
-115 60 -153 97 -213 209 l-36 67 -89 1 c-49 0 -113 -1 -141 -3z m1026 -693
c53 -26 83 -66 79 -104 -3 -27 -7 -31 -31 -29 -37 3 -88 41 -112 86 -16 30
-17 38 -6 51 17 20 24 20 70 -4z m-200 -210 c50 -25 81 -65 81 -102 0 -57 -66
-44 -125 25 -37 43 -43 65 -23 85 16 16 22 15 67 -8z m-196 -211 c50 -26 77
-62 77 -101 0 -45 -12 -48 -70 -18 -46 23 -94 88 -84 113 7 20 45 22 77 6z
m-202 -218 c63 -39 89 -75 89 -123 0 -49 -16 -56 -75 -33 -49 18 -119 89 -129
131 -15 58 43 71 115 25z m-326 -170 c58 -33 104 -76 116 -109 14 -36 11 -88
-6 -102 -33 -27 -154 42 -203 115 -70 106 -18 160 93 96z"/>
<path d="M1425 3956 c-12 -17 -13 -30 -6 -49 8 -21 20 -27 68 -37 320 -63 618
-163 797 -269 112 -65 179 -129 217 -207 38 -77 60 -93 95 -69 73 48 -35 225
-206 337 -185 122 -480 230 -814 298 -124 25 -132 25 -151 -4z"/>
<path d="M2537 3048 c-9 -7 -32 -61 -51 -119 -36 -111 -89 -225 -137 -296 -43
-62 -38 -98 15 -117 28 -10 76 47 134 162 47 91 101 234 116 307 11 50 -40 90
-77 63z"/>
<path d="M2911 2965 c-113 -32 -235 -101 -245 -139 -7 -27 19 -66 45 -66 11 0
46 15 78 34 171 100 320 103 430 10 117 -98 297 -441 381 -724 28 -94 44 -120
74 -120 25 0 56 28 56 51 0 24 -59 207 -101 312 -130 325 -292 558 -435 624
-72 33 -201 41 -283 18z"/>
</g>
</svg>
