<?xml version="1.0" standalone="no"?>
<!DOCTYPE svg PUBLIC "-//W3C//DTD SVG 20010904//EN"
 "http://www.w3.org/TR/2001/REC-SVG-20010904/DTD/svg10.dtd">
<svg version="1.0" xmlns="http://www.w3.org/2000/svg"
 width="684.000000pt" height="684.000000pt" viewBox="0 0 684.000000 684.000000"
 preserveAspectRatio="xMidYMid meet">

<g transform="translate(0.000000,684.000000) scale(0.100000,-0.100000)"
fill="#000000" stroke="none">
<path d="M1345 6829 c-346 -44 -687 -221 -934 -485 -179 -191 -303 -419 -377
-694 l-29 -105 -3 -2103 -2 -2103 26 -117 c39 -174 114 -365 192 -486 211
-327 495 -553 843 -669 213 -72 43 -67 2361 -67 2314 0 2133 -5 2347 66 474
157 841 521 996 988 76 228 69 13 73 2316 3 2251 5 2143 -53 2345 -55 191
-162 393 -293 553 -219 270 -533 462 -890 544 l-97 22 -2045 2 c-1145 1 -2076
-2 -2115 -7z m2145 -1198 c253 -96 670 -624 964 -1221 316 -640 452 -1234 407
-1775 -51 -615 -308 -1047 -771 -1298 -215 -117 -547 -176 -825 -147 -614 62
-1065 454 -1225 1065 -57 220 -65 285 -65 590 1 262 2 290 29 440 70 404 194
761 406 1180 286 565 681 1060 927 1161 71 29 89 29 153 5z"/>
<path d="M3436 5189 c-42 -33 -36 -74 25 -150 28 -35 85 -115 125 -176 77
-117 96 -132 149 -119 30 8 59 59 49 89 -11 34 -184 287 -230 334 -46 49 -77
55 -118 22z"/>
<path d="M3896 4429 c-37 -29 -34 -66 14 -184 157 -385 236 -793 247 -1275 11
-474 -54 -781 -221 -1039 -60 -94 -60 -149 1 -172 59 -22 106 28 198 212 83
164 141 375 165 602 13 129 14 492 0 637 -41 443 -109 745 -242 1083 -42 104
-56 131 -79 143 -37 19 -51 18 -83 -7z"/>
<path d="M2818 4116 c-46 -34 -127 -316 -177 -611 -66 -392 -92 -991 -48
-1098 18 -41 53 -56 96 -41 43 16 52 48 40 149 -13 102 2 483 26 705 30 267
82 518 151 722 19 56 34 110 34 120 0 50 -81 85 -122 54z"/>
<path d="M3235 3218 c-41 -37 -59 -192 -60 -508 0 -244 1 -260 28 -370 70
-293 113 -365 194 -326 45 22 51 55 23 130 -36 98 -68 219 -86 328 -20 119
-15 394 10 587 13 98 13 117 1 141 -24 46 -69 53 -110 18z"/>
<path d="M2692 2144 c-33 -23 -29 -77 13 -175 57 -133 160 -290 221 -338 35
-28 87 -27 114 1 33 36 26 70 -31 135 -62 71 -117 161 -165 273 -20 47 -43 93
-52 103 -19 21 -70 22 -100 1z"/>
</g>
</svg>
