<?xml version="1.0" standalone="no"?>
<!DOCTYPE svg PUBLIC "-//W3C//DTD SVG 20010904//EN"
 "http://www.w3.org/TR/2001/REC-SVG-20010904/DTD/svg10.dtd">
<svg version="1.0" xmlns="http://www.w3.org/2000/svg"
 width="684.000000pt" height="684.000000pt" viewBox="0 0 684.000000 684.000000"
 preserveAspectRatio="xMidYMid meet">

<g transform="translate(0.000000,684.000000) scale(0.100000,-0.100000)"
fill="#000000" stroke="none">
<path d="M1380 6829 c-461 -59 -867 -311 -1126 -700 -105 -157 -179 -334 -227
-541 l-21 -93 -4 -2025 c-2 -1487 0 -2050 8 -2120 72 -590 489 -1099 1056
-1289 194 -65 26 -61 2359 -61 2347 0 2163 -5 2371 65 378 126 709 416 889
780 72 145 106 242 135 378 19 89 20 152 20 2180 0 2049 0 2091 -20 2187 -40
194 -134 417 -239 567 -261 368 -656 611 -1088 668 -98 13 -388 15 -2081 14
-1082 -1 -1996 -5 -2032 -10z m2585 -1713 c519 -62 918 -179 1160 -340 225
-150 264 -295 122 -444 -215 -223 -756 -397 -1412 -452 -168 -15 -480 -19
-672 -9 -799 40 -1481 270 -1622 548 -108 210 211 453 784 597 168 43 433 88
605 103 69 6 141 13 160 15 94 10 753 -3 875 -18z m-2380 -1081 c224 -150 571
-271 970 -340 345 -59 758 -84 1096 -66 444 24 719 65 1049 158 293 83 566
221 695 352 28 28 54 51 59 51 15 0 -11 -457 -39 -685 -75 -595 -204 -960
-461 -1306 -238 -320 -511 -507 -853 -585 -382 -87 -1054 -82 -1401 12 -328
89 -573 265 -810 583 -315 421 -457 952 -495 1840 l-7 153 57 -56 c32 -31 95
-81 140 -111z"/>
<path d="M3390 4915 c-17 -20 -4 -65 29 -106 l29 -34 31 50 c33 53 38 74 19
93 -17 17 -93 15 -108 -3z"/>
<path d="M3108 4899 c-35 -13 -41 -33 -17 -62 19 -26 99 -77 118 -77 14 0 14
24 1 70 -18 65 -51 87 -102 69z"/>
<path d="M3697 4892 c-13 -14 -36 -85 -37 -114 -1 -28 131 45 144 79 17 43
-73 73 -107 35z"/>
<path d="M4000 4824 c-36 -24 -100 -87 -100 -97 0 -14 143 0 185 17 43 18 48
55 10 80 -31 20 -64 20 -95 0z"/>
<path d="M2762 4804 c-28 -20 -28 -50 1 -68 22 -15 128 -36 180 -36 l28 0 -21
30 c-30 42 -103 90 -137 90 -16 0 -39 -7 -51 -16z"/>
<path d="M3598 4679 c-21 -12 -101 -13 -185 -4 -53 6 -67 4 -96 -14 -20 -12
-51 -21 -74 -21 -54 0 -173 -38 -173 -56 0 -7 15 -21 33 -30 17 -9 44 -28 59
-41 32 -31 107 -47 156 -34 26 8 42 6 68 -7 24 -11 39 -13 48 -7 61 45 58 44
136 34 117 -14 164 0 196 63 16 30 14 33 -40 42 -33 6 -40 13 -54 47 -16 41
-38 49 -74 28z"/>
<path d="M2500 4653 c-31 -12 -50 -37 -50 -64 0 -38 30 -53 95 -46 64 6 195
45 195 57 0 23 -203 68 -240 53z"/>
<path d="M4260 4634 c-50 -10 -150 -46 -150 -54 0 -14 129 -51 197 -57 72 -6
93 4 93 47 0 49 -63 78 -140 64z"/>
<path d="M2722 4439 c-87 -8 -142 -22 -179 -45 -33 -20 -31 -67 3 -93 33 -26
38 -26 100 3 47 22 175 129 164 138 -3 2 -42 1 -88 -3z"/>
<path d="M4035 4380 c60 -62 138 -110 182 -110 32 0 73 37 73 66 0 43 -91 80
-224 90 l-81 6 50 -52z"/>
<path d="M3035 4337 c-127 -69 -173 -147 -105 -182 65 -34 116 -10 152 72 21
48 36 143 22 143 -5 0 -36 -15 -69 -33z"/>
<path d="M3675 4323 c9 -58 39 -130 67 -160 42 -45 148 -16 148 41 0 28 -58
85 -134 130 -81 49 -89 48 -81 -11z"/>
<path d="M3368 4306 c-29 -48 -58 -126 -58 -154 0 -50 60 -79 126 -61 46 13
59 48 40 113 -13 42 -68 146 -78 146 -2 0 -15 -20 -30 -44z"/>
</g>
</svg>
