<?xml version="1.0" standalone="no"?>
<!DOCTYPE svg PUBLIC "-//W3C//DTD SVG 20010904//EN"
 "http://www.w3.org/TR/2001/REC-SVG-20010904/DTD/svg10.dtd">
<svg version="1.0" xmlns="http://www.w3.org/2000/svg"
 width="684.000000pt" height="684.000000pt" viewBox="0 0 684.000000 684.000000"
 preserveAspectRatio="xMidYMid meet">

<g transform="translate(0.000000,684.000000) scale(0.100000,-0.100000)"
fill="#000000" stroke="none">
<path d="M1385 6833 c-376 -49 -682 -197 -940 -457 -205 -206 -327 -416 -412
-706 l-28 -95 -3 -2130 c-2 -1921 -1 -2138 13 -2210 59 -292 209 -570 424
-786 206 -206 409 -327 689 -412 l107 -32 2145 -3 c2379 -3 2195 -8 2402 64
544 188 942 657 1038 1220 20 117 20 150 17 2169 l-3 2050 -22 90 c-37 149
-71 244 -133 370 -234 473 -694 801 -1214 864 -63 8 -692 10 -2070 9 -1089 0
-1993 -3 -2010 -5z m1412 -1073 c23 -41 62 -101 85 -133 l43 -58 45 5 c240 28
641 31 839 5 l85 -11 37 43 c21 24 53 70 71 102 60 106 73 122 99 125 57 7
119 -103 119 -209 0 -51 -20 -111 -46 -140 -14 -15 -11 -19 33 -45 26 -15 64
-40 84 -56 l35 -28 150 44 c240 72 396 136 534 222 94 58 171 59 234 4 139
-123 99 -438 -78 -616 -114 -114 -269 -170 -444 -161 -84 4 -102 2 -98 -9 10
-27 35 -161 45 -244 6 -47 15 -214 21 -371 17 -493 45 -594 249 -902 151 -228
182 -295 201 -431 29 -197 -68 -475 -227 -655 -59 -66 -165 -149 -268 -208
-65 -38 -240 -113 -262 -113 -6 0 -13 25 -17 55 -8 70 -50 204 -88 280 -55
110 -112 180 -170 209 -158 79 -337 -28 -338 -202 0 -58 15 -101 58 -164 44
-66 72 -142 79 -212 7 -77 24 -70 -222 -87 -234 -16 -748 0 -771 24 -3 3 0 35
6 73 10 67 48 155 108 254 22 37 27 57 27 110 -1 136 -95 230 -232 230 -101 0
-164 -46 -242 -175 -47 -77 -98 -218 -113 -307 -6 -40 -15 -77 -18 -81 -4 -4
-40 4 -81 19 -413 148 -679 487 -683 869 -2 178 23 241 204 515 205 312 229
405 250 950 11 284 25 417 60 554 12 43 19 80 17 82 -2 2 -28 0 -57 -6 -78
-15 -138 -12 -224 10 -101 26 -168 63 -236 130 -101 101 -157 248 -147 382 14
166 111 229 235 149 122 -78 361 -177 576 -237 l95 -27 48 44 c26 24 71 59
100 77 l52 33 -25 46 c-63 118 1 332 96 321 19 -2 34 -20 67 -78z m93 -3409
c59 -42 63 -106 12 -182 -149 -220 -133 -528 37 -733 231 -280 645 -301 902
-46 132 131 182 247 183 430 1 139 -19 216 -88 330 -66 108 -59 177 21 215 33
16 41 16 78 4 33 -11 48 -27 86 -84 101 -155 134 -267 134 -460 0 -167 -20
-250 -92 -386 -204 -387 -653 -557 -1058 -400 -209 81 -393 264 -480 479 -44
108 -58 201 -53 347 4 113 9 143 38 227 20 62 51 127 84 175 73 111 127 134
196 84z"/>
<path d="M5055 5523 c-105 -63 -263 -133 -429 -189 -89 -30 -169 -54 -178 -54
-30 0 -29 -18 5 -63 18 -24 54 -84 79 -133 54 -104 67 -112 194 -121 144 -10
261 33 360 131 72 73 112 149 127 245 18 117 -18 221 -76 221 -12 0 -49 -16
-82 -37z"/>
<path d="M3113 5440 c-20 -8 -23 -17 -23 -72 1 -378 156 -776 410 -1051 201
-217 517 -409 790 -481 94 -25 268 -51 277 -42 3 3 0 60 -6 128 -6 68 -16 238
-21 378 -13 335 -37 481 -109 650 -113 268 -290 412 -586 477 -84 18 -695 29
-732 13z"/>
<path d="M2688 3664 c-42 -22 -71 -88 -71 -159 0 -99 51 -170 125 -170 33 0
45 7 73 36 117 128 12 369 -127 293z"/>
<path d="M4015 3647 c-57 -57 -70 -157 -30 -241 19 -40 66 -76 100 -76 36 0
86 39 105 83 73 159 -66 343 -175 234z"/>
<path d="M3151 2874 c-358 -49 -676 -197 -917 -426 -105 -101 -153 -163 -137
-179 8 -8 36 10 95 62 229 199 550 349 863 403 218 38 508 36 732 -4 306 -55
632 -209 853 -404 41 -36 78 -66 82 -66 40 0 -24 93 -133 194 -310 287 -723
438 -1187 435 -81 -1 -194 -7 -251 -15z"/>
</g>
</svg>
