<?xml version="1.0" standalone="no"?>
<!DOCTYPE svg PUBLIC "-//W3C//DTD SVG 20010904//EN"
 "http://www.w3.org/TR/2001/REC-SVG-20010904/DTD/svg10.dtd">
<svg version="1.0" xmlns="http://www.w3.org/2000/svg"
 width="684.000000pt" height="684.000000pt" viewBox="0 0 684.000000 684.000000"
 preserveAspectRatio="xMidYMid meet">

<g transform="translate(0.000000,684.000000) scale(0.100000,-0.100000)"
fill="#000000" stroke="none">
<path d="M1342 6824 c-584 -85 -1079 -498 -1265 -1055 -78 -233 -72 -25 -72
-2359 0 -1975 1 -2089 18 -2170 86 -403 331 -768 665 -991 170 -114 300 -172
491 -220 l113 -29 2124 0 c1892 0 2133 2 2202 16 256 52 540 202 746 395 200
186 362 459 439 736 l32 118 3 2110 c3 2326 7 2165 -59 2375 -41 128 -134 314
-217 430 -247 348 -648 590 -1069 645 -162 21 -4005 21 -4151 -1z m2197 -1450
c57 -16 107 -60 223 -195 l56 -66 119 -28 c261 -61 521 -169 708 -292 138 -92
302 -258 372 -377 100 -170 174 -399 214 -661 29 -184 31 -511 5 -690 -70
-495 -253 -844 -544 -1043 -239 -163 -594 -291 -992 -358 l-105 -17 -90 -87
c-101 -98 -134 -119 -205 -127 -96 -11 -160 28 -282 175 -39 46 -84 89 -102
97 -17 7 -83 28 -146 45 -234 66 -466 168 -614 270 -292 202 -473 550 -547
1055 -21 136 -18 520 4 670 44 290 131 542 253 726 183 277 600 516 1089 625
66 14 133 33 150 42 16 8 77 61 136 117 98 95 125 113 194 128 36 8 51 7 104
-9z"/>
<path d="M3256 4997 c-55 -55 -161 -402 -210 -687 -104 -601 -98 -1407 15
-2085 43 -255 56 -286 115 -271 44 12 47 36 20 174 -48 238 -76 478 -97 809
-15 251 -7 857 15 1046 42 375 116 687 212 905 30 68 30 96 2 116 -30 22 -45
20 -72 -7z"/>
<path d="M4109 4616 c-17 -36 -4 -69 33 -90 59 -35 212 -153 253 -195 l40 -42
0 -182 0 -182 31 -70 c47 -103 49 -124 24 -209 -18 -58 -20 -78 -11 -95 14
-26 52 -36 79 -22 46 25 77 207 49 291 -9 25 -27 72 -40 105 -24 58 -25 64
-15 169 20 202 -8 273 -148 386 -190 152 -271 190 -295 136z"/>
<path d="M2410 4492 c-29 -10 -126 -80 -167 -122 -27 -27 -45 -55 -49 -77 -7
-37 0 -197 10 -223 4 -9 -14 -38 -45 -74 -87 -102 -94 -122 -94 -271 0 -146 6
-180 36 -196 29 -15 68 -3 78 24 5 12 4 64 -2 117 -14 138 -9 153 109 300 40
49 39 33 18 228 -7 60 -5 64 22 93 15 16 56 47 90 70 34 22 64 48 67 59 10 40
-35 85 -73 72z"/>
<path d="M3792 3684 c-29 -20 -28 -51 2 -111 55 -109 50 -188 -17 -281 -69
-96 -79 -126 -75 -214 3 -85 17 -108 64 -108 36 0 48 26 49 104 0 69 1 73 53
145 81 114 100 208 66 322 -27 90 -75 159 -111 159 -5 0 -19 -7 -31 -16z"/>
<path d="M2412 3278 c-20 -25 -42 -122 -42 -184 0 -76 10 -104 60 -169 91
-118 119 -241 84 -374 -17 -69 -17 -71 1 -91 13 -14 29 -20 49 -18 39 4 60 44
76 143 23 143 -18 281 -127 423 -38 50 -40 74 -16 173 15 66 15 70 -2 89 -20
22 -67 27 -83 8z"/>
<path d="M4398 2816 c-22 -11 -23 -19 -28 -126 -3 -63 -9 -123 -14 -132 -4 -9
-28 -24 -52 -33 -24 -8 -65 -23 -91 -32 -67 -23 -106 -65 -132 -145 -37 -112
-39 -113 -180 -114 -132 -1 -151 -8 -151 -55 0 -49 29 -59 165 -59 181 1 214
21 266 164 27 78 51 98 137 125 133 40 167 96 167 272 0 110 -7 132 -44 142
-11 2 -30 -1 -43 -7z"/>
</g>
</svg>
