<?xml version="1.0" standalone="no"?>
<!DOCTYPE svg PUBLIC "-//W3C//DTD SVG 20010904//EN"
 "http://www.w3.org/TR/2001/REC-SVG-20010904/DTD/svg10.dtd">
<svg version="1.0" xmlns="http://www.w3.org/2000/svg"
 width="684.000000pt" height="684.000000pt" viewBox="0 0 684.000000 684.000000"
 preserveAspectRatio="xMidYMid meet">

<g transform="translate(0.000000,684.000000) scale(0.100000,-0.100000)"
fill="#000000" stroke="none">
<path d="M1342 6824 c-116 -17 -254 -54 -352 -94 -484 -200 -812 -578 -953
-1097 l-32 -118 -3 -2055 c-2 -1467 0 -2077 8 -2133 89 -627 566 -1153 1180
-1302 l105 -25 2127 0 c2337 0 2167 -4 2362 61 458 153 837 533 989 990 72
215 68 40 65 2394 l-3 2120 -23 80 c-61 208 -124 349 -221 494 -257 382 -649
626 -1101 687 -153 20 -4008 19 -4148 -2z m898 -1580 c111 -183 211 -406 266
-590 34 -118 44 -276 21 -355 -21 -72 -80 -139 -149 -170 -48 -22 -67 -24
-193 -24 -130 0 -144 2 -196 26 -138 65 -189 197 -155 399 21 122 46 205 102
338 62 149 229 461 246 462 4 0 30 -39 58 -86z m2237 -361 c251 -427 354 -769
292 -972 -19 -64 -88 -135 -157 -163 -49 -19 -76 -22 -182 -22 -107 0 -133 3
-184 23 -190 75 -227 284 -110 624 56 162 266 577 293 577 5 0 27 -30 48 -67z
m-1113 -1275 c134 -232 237 -477 272 -649 24 -120 17 -248 -19 -322 -52 -105
-149 -151 -322 -151 -219 0 -327 78 -356 254 -19 122 18 297 112 525 59 143
226 455 243 455 3 0 34 -51 70 -112z m1386 -911 c113 -198 204 -412 251 -587
33 -123 33 -275 0 -348 -29 -65 -95 -125 -164 -149 -63 -21 -259 -25 -324 -5
-75 22 -135 71 -168 136 -29 57 -30 65 -29 180 0 182 43 322 185 609 101 205
160 300 175 285 7 -7 40 -62 74 -121z m-2496 -89 c181 -313 286 -605 286 -797
0 -115 -21 -176 -84 -236 -69 -68 -135 -89 -271 -89 -221 0 -329 79 -357 261
-27 175 75 489 274 841 57 101 77 132 83 132 2 0 33 -51 69 -112z"/>
</g>
</svg>
