<?xml version="1.0" standalone="no"?>
<!DOCTYPE svg PUBLIC "-//W3C//DTD SVG 20010904//EN"
 "http://www.w3.org/TR/2001/REC-SVG-20010904/DTD/svg10.dtd">
<svg version="1.0" xmlns="http://www.w3.org/2000/svg"
 width="684.000000pt" height="684.000000pt" viewBox="0 0 684.000000 684.000000"
 preserveAspectRatio="xMidYMid meet">

<g transform="translate(0.000000,684.000000) scale(0.100000,-0.100000)"
fill="#000000" stroke="none">
<path d="M1339 6815 c-400 -63 -741 -257 -988 -565 -197 -245 -308 -513 -341
-822 -14 -131 -13 -3912 0 -4049 38 -372 205 -711 482 -974 176 -167 376 -285
614 -362 l119 -38 2205 0 2205 0 117 38 c144 46 324 135 443 219 50 34 142
115 206 180 178 178 296 367 374 599 70 212 65 26 65 2365 l0 2114 -25 105
c-150 637 -674 1108 -1328 1195 -52 7 -751 10 -2070 9 -1609 -1 -2008 -4
-2078 -14z m632 -1661 c175 -55 380 -171 562 -317 l68 -55 52 14 c216 58 456
78 869 71 336 -5 491 -21 663 -66 l70 -18 80 62 c119 91 250 177 344 224 106
54 272 109 349 117 55 6 62 4 84 -17 l23 -24 0 -390 c-1 -410 -3 -439 -52
-576 l-16 -45 42 -88 c84 -177 150 -405 192 -661 26 -163 37 -536 20 -670 -28
-211 -104 -417 -206 -561 -97 -135 -248 -261 -414 -344 -93 -46 -279 -106
-421 -134 -230 -46 -312 -51 -850 -51 -351 0 -539 4 -615 13 -321 38 -600 125
-790 247 -239 153 -405 407 -470 720 -83 401 1 1026 192 1435 l44 95 -25 75
c-41 127 -47 198 -42 590 2 201 5 366 5 368 1 1 11 7 24 12 33 15 124 4 218
-26z"/>
<path d="M2374 3576 c-42 -19 -70 -57 -84 -116 -16 -66 6 -147 51 -184 47 -40
110 -37 154 7 116 116 17 354 -121 293z"/>
<path d="M4405 3576 c-82 -37 -118 -150 -76 -242 25 -56 64 -84 115 -84 51 0
80 19 106 70 67 132 -32 307 -145 256z"/>
<path d="M3187 3275 c-200 -38 -340 -108 -467 -235 -135 -134 -207 -296 -217
-485 -4 -87 -2 -108 17 -159 40 -104 128 -174 270 -213 68 -18 301 -24 575
-13 66 2 221 0 345 -4 190 -7 238 -6 309 7 317 61 415 275 285 620 -90 236
-304 409 -584 472 -105 24 -426 30 -533 10z m488 -124 c167 -35 280 -92 384
-194 139 -136 220 -405 162 -533 -56 -123 -240 -166 -595 -139 -179 13 -222
13 -391 0 -189 -15 -252 -14 -375 7 -121 21 -208 75 -231 146 -38 115 22 341
127 475 102 131 310 232 529 257 108 12 281 4 390 -19z"/>
<path d="M3106 2901 c-67 -70 -109 -295 -69 -371 38 -73 99 -40 142 76 74 197
24 397 -73 295z"/>
<path d="M3666 2908 c-65 -102 19 -418 111 -418 72 0 82 197 17 340 -44 96
-96 128 -128 78z"/>
</g>
</svg>
