<?xml version="1.0" standalone="no"?>
<!DOCTYPE svg PUBLIC "-//W3C//DTD SVG 20010904//EN"
 "http://www.w3.org/TR/2001/REC-SVG-20010904/DTD/svg10.dtd">
<svg version="1.0" xmlns="http://www.w3.org/2000/svg"
 width="684.000000pt" height="684.000000pt" viewBox="0 0 684.000000 684.000000"
 preserveAspectRatio="xMidYMid meet">

<g transform="translate(0.000000,684.000000) scale(0.100000,-0.100000)"
fill="#000000" stroke="none">
<path d="M1380 6833 c-606 -67 -1130 -497 -1313 -1080 -72 -229 -68 -75 -65
-2383 l4 -2075 21 -86 c70 -283 203 -530 392 -731 216 -230 497 -387 816 -458
88 -19 133 -20 2183 -20 1871 0 2101 2 2170 16 623 128 1105 610 1232 1233 20
98 20 132 20 2166 0 2046 0 2068 -21 2168 -61 304 -206 573 -429 797 -221 221
-472 358 -795 433 -90 21 -97 21 -2135 23 -1125 0 -2061 -1 -2080 -3z m2682
-1283 c334 -71 636 -246 851 -495 93 -107 157 -207 227 -350 154 -316 202
-674 145 -1083 -72 -513 -371 -1156 -750 -1611 -327 -392 -713 -638 -1150
-733 -83 -18 -133 -22 -300 -23 -174 0 -214 3 -303 23 -143 32 -238 65 -368
127 -603 286 -942 936 -874 1670 40 425 196 865 474 1332 222 374 540 713 846
904 225 139 459 222 745 263 77 11 363 -4 457 -24z"/>
<path d="M3835 5456 c-64 -20 -123 -53 -226 -127 -201 -142 -253 -164 -454
-185 -363 -38 -407 -66 -559 -363 -109 -212 -146 -255 -327 -376 -154 -103
-226 -172 -262 -248 -40 -82 -48 -134 -56 -352 -10 -240 -17 -265 -136 -460
-107 -178 -127 -224 -133 -316 -6 -100 10 -153 108 -359 43 -91 83 -189 89
-218 6 -29 11 -133 11 -230 0 -277 21 -354 124 -457 64 -64 114 -93 280 -165
82 -35 176 -86 249 -135 65 -42 153 -91 195 -108 68 -27 89 -31 177 -32 123 0
154 13 341 141 197 133 238 150 445 180 214 30 275 47 347 94 74 48 102 89
205 300 101 206 141 257 279 350 202 137 278 213 321 323 17 44 21 86 27 277
9 264 12 278 128 486 102 184 115 217 120 305 6 102 -12 159 -109 349 -44 85
-86 180 -94 210 -11 39 -15 113 -15 260 0 233 -10 290 -61 376 -67 110 -180
198 -349 273 -41 18 -109 54 -150 81 -109 69 -172 99 -258 121 -85 22 -197 24
-257 5z m363 -298 c26 -26 12 -53 -51 -98 -178 -129 -492 -418 -634 -585 -403
-472 -612 -866 -814 -1535 -76 -252 -181 -716 -224 -990 -21 -137 -28 -152
-63 -148 l-27 3 1 145 c2 161 22 360 59 583 153 914 432 1525 930 2036 243
249 487 438 730 564 79 42 77 41 93 25z m262 -152 c20 -53 33 -283 27 -485
-12 -395 -83 -737 -226 -1080 -47 -112 -171 -348 -236 -447 -263 -405 -671
-833 -1111 -1165 -176 -132 -241 -171 -265 -158 -34 18 -22 51 34 97 117 97
428 397 557 537 593 646 847 1073 1020 1715 79 296 130 657 130 926 0 39 3 74
7 77 16 17 54 6 63 -17z m-1482 -103 c33 -29 182 -245 182 -264 0 -22 -32 -41
-54 -33 -22 8 -196 253 -196 275 0 16 23 38 41 39 4 0 16 -8 27 -17z m-541
-830 c173 -93 196 -115 159 -151 -16 -16 -25 -13 -143 48 -204 105 -223 118
-223 143 0 24 17 47 34 47 5 0 83 -39 173 -87z m2470 -199 c26 -5 39 -39 23
-59 -14 -17 -121 -20 -268 -8 -77 6 -83 8 -89 31 -11 46 14 53 171 46 78 -3
151 -7 163 -10z m-2679 -826 c2 -18 -3 -30 -15 -37 -11 -5 -86 -18 -167 -27
-145 -18 -148 -18 -162 1 -16 22 -17 25 -5 44 11 17 218 50 296 48 46 -2 50
-4 53 -29z m2289 -88 c83 -44 156 -87 163 -95 15 -18 4 -52 -20 -60 -17 -6
-300 137 -342 173 -34 29 -9 79 32 67 9 -3 83 -41 167 -85z m-695 -744 c7 -7
42 -72 78 -145 70 -142 72 -163 16 -169 -25 -3 -30 4 -91 132 -36 74 -65 144
-65 154 0 37 37 54 62 28z"/>
</g>
</svg>
