<?xml version="1.0" standalone="no"?>
<!DOCTYPE svg PUBLIC "-//W3C//DTD SVG 20010904//EN"
 "http://www.w3.org/TR/2001/REC-SVG-20010904/DTD/svg10.dtd">
<svg version="1.0" xmlns="http://www.w3.org/2000/svg"
 width="684.000000pt" height="684.000000pt" viewBox="0 0 684.000000 684.000000"
 preserveAspectRatio="xMidYMid meet">

<g transform="translate(0.000000,684.000000) scale(0.100000,-0.100000)"
fill="#000000" stroke="none">
<path d="M1359 6825 c-630 -87 -1152 -550 -1310 -1162 -16 -63 -34 -156 -40
-206 -7 -63 -9 -737 -7 -2112 l4 -2020 21 -93 c74 -320 211 -570 433 -793 212
-212 463 -353 748 -420 81 -18 141 -19 2220 -19 2105 0 2138 0 2221 20 360 87
674 294 900 595 112 148 200 334 258 541 l28 99 0 2155 0 2155 -23 82 c-82
298 -215 529 -427 738 -219 216 -474 352 -800 427 l-100 22 -2015 2 c-1628 2
-2034 0 -2111 -11z m3101 -1225 c111 -29 260 -89 267 -107 9 -22 -102 -177
-192 -268 -177 -179 -348 -255 -570 -255 -124 0 -233 19 -365 65 -54 19 -101
35 -103 35 -2 0 5 -35 16 -77 17 -65 21 -110 21 -265 1 -122 5 -188 11 -188 6
0 102 32 214 70 319 110 458 140 648 140 278 0 506 -102 729 -324 148 -148
222 -268 282 -457 50 -156 65 -291 59 -524 -12 -448 -147 -919 -409 -1425
-203 -394 -414 -647 -627 -755 -202 -101 -364 -108 -711 -28 -218 50 -350 55
-515 18 -298 -65 -318 -68 -450 -69 -150 0 -216 14 -340 74 -240 116 -467 401
-695 873 -248 513 -375 1029 -357 1447 15 331 98 565 276 776 132 155 318 287
484 342 117 39 197 52 324 52 182 0 332 -34 708 -163 72 -24 145 -48 163 -51
l32 -8 0 80 c0 258 -82 459 -263 646 -40 42 -59 89 -52 130 20 103 149 143
226 70 37 -36 107 -140 155 -231 l37 -73 45 67 c132 197 345 355 536 399 91
21 307 12 416 -16z"/>
</g>
</svg>
