<?xml version="1.0" standalone="no"?>
<!DOCTYPE svg PUBLIC "-//W3C//DTD SVG 20010904//EN"
 "http://www.w3.org/TR/2001/REC-SVG-20010904/DTD/svg10.dtd">
<svg version="1.0" xmlns="http://www.w3.org/2000/svg"
 width="684.000000pt" height="684.000000pt" viewBox="0 0 684.000000 684.000000"
 preserveAspectRatio="xMidYMid meet">

<g transform="translate(0.000000,684.000000) scale(0.100000,-0.100000)"
fill="#000000" stroke="none">
<path d="M1325 6824 c-326 -51 -611 -190 -849 -415 -226 -214 -390 -504 -455
-802 -21 -96 -21 -102 -21 -2197 0 -2099 0 -2100 21 -2198 124 -570 578 -1039
1146 -1183 l115 -29 2133 0 2134 0 116 30 c451 116 833 432 1030 853 53 113
87 214 117 349 l23 103 0 2075 c0 1950 -1 2080 -18 2157 -32 149 -67 256 -122
370 -232 486 -669 808 -1203 888 -141 22 -4029 21 -4167 -1z m2888 -1362 c241
-205 470 -344 662 -405 152 -48 412 -90 628 -103 64 -4 117 -9 117 -12 0 -15
-237 -395 -251 -403 -32 -17 -213 -31 -311 -25 -54 4 -98 4 -98 1 0 -4 9 -41
20 -83 34 -134 70 -349 85 -510 52 -546 -33 -1057 -250 -1497 -219 -445 -542
-785 -930 -978 -417 -207 -939 -221 -1412 -36 l-102 40 -115 126 -115 125 20
51 c12 29 39 97 60 152 l40 100 154 74 c527 253 1125 738 1450 1176 229 308
399 675 515 1108 39 145 79 353 71 364 -3 5 -31 28 -61 51 -69 54 -204 184
-252 243 -58 70 -108 160 -108 193 0 28 80 326 87 326 2 0 45 -35 96 -78z
m127 -712 c0 -10 -9 -65 -20 -122 l-20 -102 -67 -69 c-104 -105 -323 -281
-473 -380 -162 -106 -412 -231 -570 -285 -281 -96 -704 -166 -1075 -178 l-180
-6 -75 52 c-205 145 -373 377 -459 635 -39 118 -38 112 -16 242 l19 113 50 14
c28 8 78 22 112 31 l60 17 65 -36 c210 -115 559 -227 896 -288 170 -30 511
-33 668 -5 283 51 630 169 930 317 77 37 143 69 148 69 4 1 7 -8 7 -19z m-104
-465 c-3 -9 -13 -41 -22 -73 -75 -259 -318 -749 -408 -825 -67 -56 -304 -206
-400 -252 -203 -98 -349 -137 -593 -156 -358 -28 -809 48 -1140 193 -99 43
-126 45 -131 11 -10 -69 502 -228 846 -264 71 -7 200 -9 345 -6 249 6 332 18
492 72 85 29 304 132 395 187 l55 32 -31 -39 c-54 -68 -312 -315 -455 -435
-152 -128 -305 -240 -484 -355 l-120 -77 -88 6 c-261 18 -508 105 -747 263
-137 91 -355 303 -438 425 -51 75 -53 82 -77 215 -14 76 -25 145 -25 153 0 8
33 38 73 66 39 28 93 65 118 83 l47 33 138 -18 c169 -22 592 -25 784 -6 406
41 787 132 1061 252 227 100 508 281 719 464 76 66 97 78 86 51z"/>
<path d="M4753 4228 c-6 -7 -13 -40 -17 -73 -3 -33 -16 -117 -28 -187 -11 -69
-18 -133 -15 -142 7 -17 52 -22 62 -6 8 13 41 193 55 297 8 59 8 88 0 103 -12
22 -42 27 -57 8z"/>
<path d="M4618 3508 c-8 -7 -32 -67 -52 -133 -154 -491 -390 -854 -702 -1077
-369 -264 -795 -445 -1184 -503 -109 -17 -130 -26 -130 -56 0 -33 29 -38 130
-23 414 61 896 269 1260 543 303 228 532 582 690 1068 45 137 50 170 29 184
-19 12 -22 11 -41 -3z"/>
<path d="M2248 1836 c-21 -51 -38 -98 -38 -103 0 -11 157 -206 169 -211 8 -3
31 172 31 236 0 21 -7 49 -16 62 -20 29 -96 110 -104 110 -3 0 -22 -42 -42
-94z"/>
<path d="M1347 3414 c-42 -30 -77 -61 -77 -67 1 -32 28 -229 32 -233 5 -5 113
123 143 169 14 23 17 39 11 92 -7 69 -14 95 -25 95 -4 0 -41 -25 -84 -56z"/>
</g>
</svg>
