<?xml version="1.0" standalone="no"?>
<!DOCTYPE svg PUBLIC "-//W3C//DTD SVG 20010904//EN"
 "http://www.w3.org/TR/2001/REC-SVG-20010904/DTD/svg10.dtd">
<svg version="1.0" xmlns="http://www.w3.org/2000/svg"
 width="684.000000pt" height="684.000000pt" viewBox="0 0 684.000000 684.000000"
 preserveAspectRatio="xMidYMid meet">

<g transform="translate(0.000000,684.000000) scale(0.100000,-0.100000)"
fill="#000000" stroke="none">
<path d="M1355 6829 c-230 -29 -465 -120 -676 -260 -131 -88 -325 -283 -412
-414 -111 -169 -199 -376 -244 -575 -16 -69 -17 -242 -20 -2115 -4 -2229 -6
-2139 53 -2343 75 -260 206 -481 400 -676 199 -198 427 -332 699 -409 l110
-32 2125 -3 c2341 -3 2184 -6 2382 59 51 17 147 57 213 90 408 201 697 558
823 1017 l27 97 3 2115 c3 2343 7 2176 -63 2386 -176 530 -611 918 -1170 1046
l-100 22 -2040 2 c-1143 1 -2071 -2 -2110 -7z m2394 -1304 c278 -45 558 -203
845 -475 589 -559 781 -1432 511 -2324 -46 -150 -89 -250 -157 -367 -285 -484
-847 -862 -1508 -1014 -237 -54 -527 -71 -706 -40 -265 47 -529 189 -739 400
-350 349 -463 782 -293 1118 133 266 352 429 646 483 61 11 186 19 417 24 364
8 384 11 505 77 281 152 440 389 401 600 -15 84 -74 206 -141 295 -58 77 -178
192 -289 278 -136 105 -206 235 -231 429 -19 145 27 291 115 369 48 42 154
101 219 122 123 39 262 48 405 25z"/>
<path d="M3992 4277 c-28 -30 -27 -54 3 -150 14 -43 25 -86 25 -97 0 -34 43
-73 80 -73 51 0 83 42 75 97 -15 86 -56 201 -81 224 -32 29 -75 28 -102 -1z"/>
<path d="M4080 3663 c-30 -11 -50 -37 -61 -77 -33 -122 -118 -250 -221 -332
-244 -194 -456 -274 -731 -275 -112 0 -120 -1 -143 -24 -29 -29 -31 -74 -5
-106 17 -22 29 -24 114 -27 454 -17 968 281 1108 642 42 109 45 138 17 169
-25 27 -54 39 -78 30z"/>
</g>
</svg>
