<?xml version="1.0" standalone="no"?>
<!DOCTYPE svg PUBLIC "-//W3C//DTD SVG 20010904//EN"
 "http://www.w3.org/TR/2001/REC-SVG-20010904/DTD/svg10.dtd">
<svg version="1.0" xmlns="http://www.w3.org/2000/svg"
 width="684.000000pt" height="684.000000pt" viewBox="0 0 684.000000 684.000000"
 preserveAspectRatio="xMidYMid meet">

<g transform="translate(0.000000,684.000000) scale(0.100000,-0.100000)"
fill="#000000" stroke="none">
<path d="M1360 6829 c-300 -38 -602 -176 -839 -382 -249 -218 -437 -545 -500
-871 -21 -106 -21 -128 -21 -2166 0 -1992 1 -2063 19 -2159 118 -605 595
-1099 1191 -1232 82 -18 162 -19 2210 -19 2051 0 2128 1 2210 19 277 62 552
215 759 422 202 201 344 451 418 734 l28 110 0 2130 0 2130 -33 120 c-116 421
-380 762 -760 978 -159 92 -378 163 -567 186 -108 13 -4013 13 -4115 0z m1196
-999 c39 -14 57 -45 58 -103 l1 -48 87 -2 c76 -2 89 -5 112 -26 29 -27 33 -58
11 -87 -22 -29 -18 -34 25 -34 53 0 106 -23 115 -49 9 -30 -10 -57 -68 -94
-29 -19 -58 -45 -66 -59 l-13 -25 -72 18 c-196 51 -381 48 -623 -8 -22 -5 -23
-2 -23 54 0 123 51 250 138 344 56 61 114 95 197 115 64 16 85 16 121 4z m69
-605 c176 -28 292 -82 391 -180 62 -62 76 -83 118 -180 27 -60 68 -170 92
-243 52 -157 92 -221 209 -337 165 -163 385 -282 645 -346 90 -22 109 -23 335
-19 475 8 618 6 653 -9 21 -9 43 -31 60 -60 59 -101 21 -253 -91 -365 -90 -91
-220 -140 -400 -153 -120 -8 -127 -15 -138 -129 -12 -128 -41 -202 -106 -275
-56 -62 -103 -82 -205 -87 -137 -7 -255 37 -376 142 -30 25 -58 46 -63 46 -25
0 -50 -23 -67 -63 -47 -104 -132 -186 -215 -208 -144 -39 -356 112 -506 361
-38 62 -47 70 -78 70 -30 0 -53 -26 -53 -60 0 -45 111 -204 214 -305 178 -176
358 -232 514 -160 51 23 135 99 183 164 l25 33 64 -41 c168 -107 393 -129 548
-53 65 32 141 112 177 188 27 57 65 191 65 229 0 20 9 23 105 39 222 36 358
110 455 248 60 86 90 174 90 267 l0 66 203 43 c277 58 327 56 327 -14 0 -46
-49 -140 -97 -185 -48 -46 -98 -77 -195 -119 -106 -46 -104 -58 19 -106 111
-43 150 -73 133 -104 -19 -36 -118 -102 -261 -174 l-141 -71 -33 -78 c-19 -43
-61 -124 -95 -180 -298 -500 -752 -833 -1278 -937 l-112 -23 6 -33 c8 -45 -1
-76 -32 -113 -31 -37 -78 -48 -125 -28 -34 14 -35 14 -82 -27 l-47 -42 0 -286
c0 -273 -1 -286 -21 -312 l-20 -26 -179 0 c-98 0 -186 3 -195 6 -8 4 -22 19
-31 35 -13 25 -13 33 0 64 17 39 26 42 136 48 144 7 161 37 167 287 l5 175
-45 44 c-45 43 -47 44 -117 45 -70 1 -72 2 -107 40 -31 34 -35 43 -30 80 3 22
8 48 11 57 6 13 -14 23 -109 54 -143 46 -376 160 -510 250 -400 267 -694 631
-862 1065 -95 246 -144 507 -147 778 l-1 163 -65 19 c-36 10 -114 32 -174 49
-59 16 -110 32 -112 34 -3 2 76 47 174 100 99 53 193 104 211 114 22 13 35 32
47 68 24 73 97 214 139 271 228 303 612 452 1000 389z"/>
<path d="M1872 4694 c-51 -36 -69 -140 -36 -210 31 -66 106 -83 154 -36 60 60
61 173 3 235 -31 31 -85 37 -121 11z"/>
</g>
</svg>
