<?xml version="1.0" standalone="no"?>
<!DOCTYPE svg PUBLIC "-//W3C//DTD SVG 20010904//EN"
 "http://www.w3.org/TR/2001/REC-SVG-20010904/DTD/svg10.dtd">
<svg version="1.0" xmlns="http://www.w3.org/2000/svg"
 width="684.000000pt" height="684.000000pt" viewBox="0 0 684.000000 684.000000"
 preserveAspectRatio="xMidYMid meet">

<g transform="translate(0.000000,684.000000) scale(0.100000,-0.100000)"
fill="#000000" stroke="none">
<path d="M1310 6825 c-312 -53 -594 -195 -824 -415 -241 -231 -385 -485 -458
-811 l-23 -104 0 -2080 c0 -1990 1 -2084 19 -2165 136 -623 590 -1089 1196
-1226 l105 -24 2100 0 2100 0 105 24 c280 64 524 195 734 396 241 232 389 493
455 806 l21 100 -2 2120 -3 2119 -27 97 c-82 299 -222 533 -443 747 -171 164
-365 282 -585 355 -233 77 -13 70 -2325 72 -1638 2 -2086 -1 -2145 -11z m1510
-1293 c0 -4 -31 -34 -69 -65 -94 -77 -218 -213 -264 -289 -80 -133 -103 -296
-54 -400 14 -29 31 -62 40 -72 14 -19 15 -19 63 9 117 68 197 147 339 338 31
42 61 77 66 77 30 0 -15 -207 -87 -407 -59 -162 -118 -281 -205 -408 -140
-207 -273 -337 -411 -404 l-78 -37 83 -89 c93 -100 220 -210 334 -286 69 -47
78 -50 97 -39 12 8 62 34 111 58 93 46 206 111 239 137 18 14 18 16 2 59 -14
37 -22 45 -50 50 -18 3 -44 19 -59 34 -72 75 -25 202 75 202 32 0 47 -7 74
-34 28 -28 34 -42 34 -75 0 -23 -7 -55 -15 -71 -13 -26 -13 -32 3 -59 9 -17
22 -31 28 -31 6 0 62 49 125 108 63 60 124 114 136 120 51 27 104 9 168 -58
22 -23 75 -73 117 -111 l77 -70 20 38 c17 34 17 42 5 63 -7 14 -13 45 -14 69
0 89 105 144 173 91 32 -25 51 -81 43 -123 -8 -41 -52 -85 -92 -93 -27 -5 -35
-13 -49 -51 -16 -42 -16 -45 1 -58 36 -28 150 -93 239 -137 50 -24 99 -50 111
-58 19 -11 28 -8 85 30 118 79 238 181 329 278 49 52 90 101 90 108 0 6 -12
15 -27 19 -16 3 -52 20 -81 37 -216 123 -463 463 -582 803 -65 184 -108 395
-81 395 5 0 46 -51 92 -112 46 -62 110 -139 142 -170 55 -54 198 -158 218
-158 16 0 68 103 79 156 21 99 -17 241 -95 359 -46 70 -181 213 -260 276 -30
24 -55 47 -55 51 0 16 164 7 263 -13 246 -50 456 -166 626 -344 135 -143 231
-305 291 -490 27 -84 33 -120 37 -225 6 -148 -4 -209 -53 -311 -27 -56 -54
-92 -113 -149 -75 -74 -77 -77 -120 -195 -94 -261 -193 -413 -354 -541 -39
-32 -78 -63 -86 -70 -11 -10 -3 -25 41 -83 270 -354 297 -746 79 -1126 -164
-287 -414 -443 -796 -497 -141 -20 -731 -17 -865 5 -131 20 -261 58 -357 102
-288 133 -512 456 -554 797 -28 233 46 485 206 701 36 48 65 89 65 90 0 2 -37
32 -82 68 -175 138 -288 313 -382 588 -21 64 -42 109 -53 114 -10 5 -44 36
-75 67 -174 177 -201 458 -73 761 66 156 148 281 264 403 161 167 377 285 612
335 94 20 269 28 269 13z m-1512 -1921 c159 -81 605 -479 651 -581 43 -95 16
-203 -57 -224 -42 -12 -89 7 -233 92 -337 201 -607 412 -629 492 -28 103 84
238 198 240 18 0 49 -9 70 -19z m4365 6 c83 -35 137 -113 137 -196 0 -54 -16
-80 -94 -151 -108 -98 -481 -350 -632 -426 -85 -43 -97 -47 -130 -38 -48 12
-76 50 -82 113 -9 92 13 129 173 287 154 152 363 326 466 387 69 40 108 46
162 24z m-4548 -623 c113 -38 368 -153 515 -232 156 -84 221 -144 239 -219 17
-71 2 -118 -45 -141 -32 -15 -40 -15 -132 6 -214 49 -592 172 -737 242 -112
54 -138 83 -143 164 -4 56 -1 71 24 116 18 32 43 60 68 76 50 31 93 28 211
-12z m4806 14 c112 -63 139 -229 49 -306 -74 -63 -544 -229 -831 -294 -116
-26 -152 -18 -176 40 -33 79 13 173 117 244 116 79 482 250 660 309 103 34
131 35 181 7z m-4585 -733 c187 -18 326 -39 409 -62 46 -13 71 -28 107 -64 98
-98 78 -185 -49 -209 -164 -30 -815 -39 -904 -11 -20 6 -49 21 -64 33 -61 48
-83 163 -46 243 21 46 38 63 78 75 46 14 299 11 469 -5z m4658 -8 c85 -56 86
-239 1 -305 -54 -43 -92 -47 -435 -47 -465 1 -606 20 -637 86 -33 68 54 182
163 212 155 43 468 76 704 74 152 -2 180 -5 204 -20z m-3934 -499 c58 -29 66
-69 23 -110 -36 -33 -195 -121 -398 -219 -211 -102 -340 -149 -405 -149 -45 0
-55 4 -91 38 -33 30 -42 46 -46 82 -4 36 -1 51 17 73 37 47 203 123 475 217
281 97 346 107 425 68z m3045 -38 c303 -99 525 -196 564 -246 41 -52 20 -132
-45 -175 -45 -29 -111 -24 -222 17 -185 69 -597 278 -655 332 -43 41 -35 80
23 110 67 35 139 26 335 -38z"/>
</g>
</svg>
