<?xml version="1.0" standalone="no"?>
<!DOCTYPE svg PUBLIC "-//W3C//DTD SVG 20010904//EN"
 "http://www.w3.org/TR/2001/REC-SVG-20010904/DTD/svg10.dtd">
<svg version="1.0" xmlns="http://www.w3.org/2000/svg"
 width="684.000000pt" height="684.000000pt" viewBox="0 0 684.000000 684.000000"
 preserveAspectRatio="xMidYMid meet">

<g transform="translate(0.000000,684.000000) scale(0.100000,-0.100000)"
fill="#000000" stroke="none">
<path d="M1340 6829 c-623 -103 -1125 -562 -1281 -1171 -49 -196 -49 -176 -49
-2248 0 -1295 3 -1964 11 -2020 25 -207 78 -384 165 -549 208 -399 562 -685
1004 -809 l95 -27 2115 -3 c1601 -2 2132 0 2185 9 164 27 357 99 509 189 335
198 578 502 707 885 l34 100 3 2208 2 2208 -21 82 c-11 44 -41 129 -65 188
-203 482 -608 820 -1134 945 -71 17 -196 18 -2150 20 -1199 1 -2098 -2 -2130
-7z m2271 -975 c384 -72 816 -425 1152 -939 411 -631 623 -1376 579 -2038 -24
-361 -91 -633 -222 -902 -326 -669 -970 -1041 -1755 -1012 -520 19 -945 200
-1276 544 -282 294 -451 659 -524 1133 -22 144 -31 505 -16 666 60 641 304
1262 709 1804 113 150 385 423 512 512 108 77 274 165 370 198 149 51 319 63
471 34z"/>
<path d="M2935 5156 c-44 -19 -103 -89 -111 -131 -24 -130 52 -234 176 -243
176 -13 280 177 173 317 -48 62 -163 90 -238 57z"/>
<path d="M2564 4521 c-98 -61 -325 -490 -428 -810 -87 -269 -133 -610 -92
-689 20 -39 63 -62 116 -62 32 0 48 7 76 33 36 33 37 35 45 138 18 212 59 406
124 586 48 131 199 435 275 552 34 52 64 106 67 121 19 99 -100 184 -183 131z"/>
</g>
</svg>
