<?xml version="1.0" standalone="no"?>
<!DOCTYPE svg PUBLIC "-//W3C//DTD SVG 20010904//EN"
 "http://www.w3.org/TR/2001/REC-SVG-20010904/DTD/svg10.dtd">
<svg version="1.0" xmlns="http://www.w3.org/2000/svg"
 width="684.000000pt" height="684.000000pt" viewBox="0 0 684.000000 684.000000"
 preserveAspectRatio="xMidYMid meet">

<g transform="translate(0.000000,684.000000) scale(0.100000,-0.100000)"
fill="#000000" stroke="none">
<path d="M1375 6833 c-327 -41 -618 -170 -859 -381 -244 -213 -425 -518 -501
-842 -13 -57 -15 -330 -15 -2195 l0 -2130 25 -105 c138 -568 590 -1015 1168
-1155 l102 -25 2108 0 c2320 0 2154 -4 2352 61 240 80 442 205 620 383 232
233 374 495 437 809 l23 112 0 2055 0 2055 -23 105 c-34 152 -74 266 -143 401
-81 160 -164 273 -289 399 -220 220 -472 357 -790 432 l-95 22 -2045 2 c-1125
1 -2058 0 -2075 -3z m2295 -1512 c41 -11 107 -36 146 -56 l72 -35 64 15 c147
35 332 11 468 -61 62 -32 137 -99 165 -147 6 -10 42 -25 90 -37 143 -36 259
-109 324 -204 36 -52 48 -91 65 -202 8 -49 44 -276 80 -504 37 -228 100 -629
142 -890 41 -261 89 -556 107 -655 40 -224 40 -290 5 -367 -67 -146 -235 -258
-454 -303 -59 -12 -86 -23 -109 -45 -70 -66 -198 -130 -330 -166 -34 -8 -119
-18 -195 -20 -127 -5 -140 -7 -210 -39 -180 -81 -358 -116 -630 -122 -308 -8
-533 27 -723 113 -77 35 -90 38 -217 44 -237 13 -394 66 -532 181 -34 28 -62
42 -100 49 -288 54 -498 231 -502 423 0 34 18 172 41 307 24 135 95 574 158
975 64 402 127 800 140 885 14 85 28 173 31 195 21 157 172 292 383 346 55 14
80 25 90 42 34 52 117 121 185 153 130 62 307 81 445 49 l65 -16 55 30 c134
70 245 92 451 86 115 -2 174 -9 230 -24z"/>
<path d="M3350 5193 c-149 -15 -228 -39 -323 -95 l-68 -41 -72 21 c-105 30
-170 35 -263 19 -134 -24 -223 -82 -265 -172 -23 -48 -24 -49 -157 -74 -113
-21 -207 -77 -253 -149 -86 -135 35 -277 278 -327 70 -14 81 -20 124 -65 88
-88 208 -130 377 -130 98 0 108 -2 158 -30 132 -76 305 -114 524 -114 218 0
392 38 526 114 50 28 61 30 153 30 55 0 124 5 153 11 85 18 176 66 228 121 45
47 52 51 122 63 131 22 239 84 284 161 82 139 -55 286 -302 324 -75 11 -86 20
-136 104 -71 120 -306 175 -500 117 l-77 -24 -33 22 c-127 82 -329 130 -478
114z"/>
<path d="M1876 4332 c-3 -15 -24 -144 -46 -287 -23 -143 -66 -411 -96 -595
-54 -328 -171 -1061 -180 -1130 -8 -52 38 -135 101 -183 69 -52 176 -94 286
-113 92 -16 95 -17 141 -65 57 -60 180 -122 283 -144 40 -8 124 -15 196 -15
l127 0 78 -39 c173 -87 368 -124 644 -124 274 0 467 37 645 123 l80 38 155 5
c136 3 165 7 234 31 100 34 158 68 218 128 26 26 58 49 70 52 147 26 201 40
262 69 133 64 204 153 193 240 -3 23 -46 294 -95 602 -50 308 -120 747 -157
975 -36 228 -68 426 -71 438 l-5 24 -32 -25 c-49 -37 -135 -79 -202 -97 -53
-15 -60 -20 -58 -41 8 -78 50 -422 88 -734 25 -198 45 -371 45 -386 0 -58 -87
-92 -129 -50 -25 25 -20 -7 -92 586 -33 275 -62 501 -63 503 -2 1 -36 -13 -77
-32 -90 -42 -201 -66 -309 -66 -69 0 -89 -4 -138 -29 -293 -148 -828 -148
-1122 -1 -47 24 -71 28 -170 33 -174 8 -309 57 -420 154 -33 29 -61 43 -105
52 -71 16 -166 57 -229 100 l-44 31 -6 -28z m389 -397 c15 -14 25 -36 25 -52
-1 -52 -28 -220 -39 -241 -23 -43 -98 -41 -127 3 -16 24 -16 35 0 148 14 108
19 125 41 145 34 29 70 28 100 -3z m1870 -460 c16 -16 25 -36 25 -57 0 -18 7
-121 15 -228 7 -107 17 -244 20 -305 9 -160 7 -155 63 -155 80 0 236 -28 306
-54 147 -56 285 -184 246 -231 -21 -26 -41 -17 -101 43 -64 65 -148 111 -248
137 -76 19 -236 32 -243 19 -3 -5 5 -155 17 -334 20 -282 21 -329 9 -352 -24
-47 -94 -51 -125 -8 -16 21 -22 71 -40 340 -12 173 -24 318 -28 322 -4 4 -23
2 -43 -4 -42 -12 -68 0 -68 32 0 24 17 36 68 49 23 7 42 15 42 19 0 4 -11 169
-25 367 -14 198 -25 363 -25 366 0 4 9 18 21 33 28 35 80 36 114 1z m-1935
-55 c13 -13 20 -33 20 -57 0 -36 -75 -644 -85 -690 -8 -33 -45 -63 -77 -63
-36 0 -78 40 -78 75 0 26 59 485 81 635 14 89 36 120 86 120 20 0 41 -8 53
-20z m1367 -601 c123 -13 167 -28 171 -55 6 -40 -20 -48 -106 -33 -112 20
-365 18 -472 -5 -99 -21 -195 -57 -263 -99 l-48 -29 -82 20 c-45 12 -104 24
-132 28 -27 3 -56 11 -62 16 -19 15 -16 46 5 57 20 11 142 -2 211 -22 41 -12
46 -11 128 30 175 85 410 119 650 92z m-1259 -151 c27 -27 12 -47 -66 -88 -89
-46 -151 -102 -177 -160 -20 -44 -38 -55 -66 -40 -27 15 -24 47 11 106 36 63
95 115 180 159 70 36 99 42 118 23z"/>
</g>
</svg>
