<?xml version="1.0" standalone="no"?>
<!DOCTYPE svg PUBLIC "-//W3C//DTD SVG 20010904//EN"
 "http://www.w3.org/TR/2001/REC-SVG-20010904/DTD/svg10.dtd">
<svg version="1.0" xmlns="http://www.w3.org/2000/svg"
 width="684.000000pt" height="684.000000pt" viewBox="0 0 684.000000 684.000000"
 preserveAspectRatio="xMidYMid meet">

<g transform="translate(0.000000,684.000000) scale(0.100000,-0.100000)"
fill="#000000" stroke="none">
<path d="M1395 6823 c-438 -57 -802 -263 -1067 -604 -152 -195 -253 -418 -305
-674 -17 -85 -18 -196 -18 -2135 0 -2247 -4 -2094 59 -2310 101 -346 333 -660
638 -864 155 -103 290 -164 478 -215 74 -21 85 -21 2250 -21 l2175 0 94 25
c261 70 498 210 701 414 210 211 337 433 411 719 l29 113 0 2132 c0 2325 4
2157 -57 2342 -33 103 -117 281 -175 371 -168 261 -448 492 -730 603 -99 39
-281 87 -381 100 -74 10 -4027 14 -4102 4z m2685 -1168 c571 -107 1038 -490
1205 -988 116 -346 72 -692 -109 -871 -111 -109 -229 -156 -394 -156 -139 0
-303 41 -502 125 -105 44 -668 308 -885 415 -317 156 -489 282 -583 428 -64
100 -77 148 -77 292 l0 125 41 85 c139 290 461 496 869 556 110 16 317 11 435
-11z m-877 -1594 c40 -22 173 -87 297 -144 124 -58 284 -133 355 -167 124 -59
369 -170 409 -184 23 -8 22 -9 -49 -165 -64 -143 -151 -383 -201 -556 -67
-232 -98 -391 -160 -840 -60 -436 -136 -600 -357 -768 -323 -247 -698 -266
-1109 -55 -272 139 -442 335 -525 605 -25 81 -27 102 -27 268 -1 180 -1 180
33 267 58 154 145 272 432 585 357 389 533 640 739 1052 39 78 75 141 81 141
5 0 42 -18 82 -39z"/>
<path d="M3130 3468 c-18 -6 -43 -41 -89 -126 -74 -134 -172 -282 -240 -362
-25 -30 -139 -149 -252 -265 -238 -243 -289 -304 -289 -346 0 -37 32 -69 68
-69 34 0 36 2 97 75 27 33 142 155 255 270 269 275 376 414 501 652 50 96 56
126 28 159 -13 16 -50 22 -79 12z"/>
<path d="M2156 1939 c-31 -24 -33 -54 -10 -142 32 -124 69 -163 133 -141 41
15 48 52 23 131 -12 37 -27 86 -32 109 -7 29 -17 44 -35 52 -36 17 -48 15 -79
-9z"/>
</g>
</svg>
