<?xml version="1.0" standalone="no"?>
<!DOCTYPE svg PUBLIC "-//W3C//DTD SVG 20010904//EN"
 "http://www.w3.org/TR/2001/REC-SVG-20010904/DTD/svg10.dtd">
<svg version="1.0" xmlns="http://www.w3.org/2000/svg"
 width="684.000000pt" height="684.000000pt" viewBox="0 0 684.000000 684.000000"
 preserveAspectRatio="xMidYMid meet">

<g transform="translate(0.000000,684.000000) scale(0.100000,-0.100000)"
fill="#000000" stroke="none">
<path d="M1380 6829 c-539 -62 -1001 -392 -1235 -882 -59 -123 -94 -225 -122
-350 -17 -78 -18 -195 -18 -2192 l0 -2110 27 -107 c99 -388 311 -699 632 -926
139 -98 308 -175 511 -234 l80 -23 2130 -3 c2351 -3 2174 -7 2385 60 400 127
759 448 936 835 43 94 87 228 110 333 18 81 19 175 19 2180 0 1972 -1 2100
-18 2178 -73 340 -260 657 -512 870 -257 217 -541 339 -864 372 -127 12 -3949
12 -4061 -1z m2457 -773 c236 -35 370 -92 414 -177 50 -99 45 -197 -17 -325
l-37 -76 19 -36 c20 -38 79 -100 205 -217 119 -111 161 -223 125 -332 -20 -60
-73 -125 -116 -143 -40 -16 -40 -17 43 -195 81 -176 131 -308 171 -455 l31
-115 0 -1365 c0 -1558 10 -1395 -95 -1501 -169 -170 -523 -281 -982 -309 -561
-33 -1107 89 -1331 299 -76 71 -97 115 -107 223 -12 123 -12 2367 0 2528 16
224 81 435 234 763 50 107 53 117 32 117 -7 0 -33 18 -58 40 -110 96 -115 246
-14 383 11 16 66 68 121 116 64 56 112 108 133 143 l33 56 -43 88 c-40 83 -43
95 -42 169 1 194 105 270 443 321 222 33 609 33 838 0z"/>
<path d="M3120 5939 c-108 -11 -240 -37 -308 -60 -80 -27 -108 -51 -121 -105
-14 -54 -12 -64 40 -171 24 -52 39 -97 39 -120 -1 -83 -77 -195 -210 -310
-142 -121 -176 -192 -128 -263 49 -73 122 -86 250 -45 138 44 282 51 348 15
14 -7 54 -41 91 -74 36 -34 87 -73 115 -86 45 -23 61 -25 184 -25 128 0 138 1
187 27 29 16 80 54 115 87 88 82 116 94 213 93 58 0 109 -8 180 -28 135 -38
209 -39 258 -1 83 63 67 152 -45 254 -127 116 -194 190 -225 250 -45 83 -43
121 7 228 44 92 51 154 26 204 -30 56 -195 106 -435 130 -120 13 -457 12 -581
0z m-116 -224 c110 -33 231 -48 406 -49 180 -1 256 8 414 46 l89 22 18 -23
c42 -51 -11 -84 -186 -116 -252 -46 -480 -41 -729 17 -114 26 -151 61 -110
102 19 20 36 20 98 1z"/>
<path d="M2765 4749 c-38 -10 -94 -24 -124 -31 -35 -8 -59 -20 -68 -35 -34
-52 -164 -347 -201 -458 -23 -66 -50 -166 -62 -222 -20 -99 -20 -131 -20
-1404 l0 -1302 25 -43 c14 -23 46 -58 72 -77 323 -235 1084 -314 1655 -171
262 65 452 169 494 271 12 27 14 258 14 1316 0 1424 3 1363 -67 1582 -42 132
-119 317 -183 439 -46 89 -47 90 -96 102 -27 6 -85 21 -128 33 -44 11 -107 21
-140 21 -61 0 -62 -1 -111 -51 -63 -64 -139 -114 -213 -141 -46 -17 -81 -21
-187 -22 -191 -1 -267 28 -407 160 -56 54 -57 54 -120 53 -35 0 -94 -9 -133
-20z m28 -624 c66 -14 176 -32 246 -41 156 -19 477 -26 631 -13 153 12 397 53
505 85 48 14 93 23 101 20 15 -6 46 -100 68 -210 14 -66 16 -235 16 -1350 l0
-1275 -30 -21 c-49 -35 -169 -87 -265 -114 -483 -138 -1209 -92 -1525 96 l-55
33 -3 533 -2 532 37 -16 c355 -154 945 -206 1428 -126 l100 17 3 540 2 541
-102 -18 c-160 -27 -414 -41 -598 -35 -325 12 -585 61 -798 149 l-74 31 5 236
c4 216 6 244 30 326 14 50 30 102 36 117 l10 27 57 -19 c31 -11 111 -31 177
-45z"/>
</g>
</svg>
