<?xml version="1.0" standalone="no"?>
<!DOCTYPE svg PUBLIC "-//W3C//DTD SVG 20010904//EN"
 "http://www.w3.org/TR/2001/REC-SVG-20010904/DTD/svg10.dtd">
<svg version="1.0" xmlns="http://www.w3.org/2000/svg"
 width="684.000000pt" height="684.000000pt" viewBox="0 0 684.000000 684.000000"
 preserveAspectRatio="xMidYMid meet">

<g transform="translate(0.000000,684.000000) scale(0.100000,-0.100000)"
fill="#000000" stroke="none">
<path d="M1305 6811 c-345 -63 -601 -196 -846 -440 -226 -226 -368 -488 -436
-802 -17 -79 -18 -196 -18 -2169 0 -2321 -6 -2114 67 -2340 78 -243 192 -426
387 -620 223 -222 426 -342 707 -415 l98 -25 2161 0 c2100 0 2162 1 2240 19
222 54 464 180 652 341 200 170 379 442 461 700 66 208 62 50 62 2347 l0 2086
-26 115 c-31 140 -62 228 -120 347 -65 131 -160 268 -259 373 -231 245 -472
384 -815 470 l-105 26 -2055 3 c-1943 1 -2060 1 -2155 -16z m3481 -1335 c119
-24 154 -36 154 -51 0 -26 -79 -193 -134 -285 -261 -433 -656 -584 -1199 -458
-87 20 -89 20 -82 47 13 54 116 254 175 340 99 145 240 276 365 338 57 29 165
63 248 79 90 17 371 11 473 -10z m-1166 -362 c0 -4 -15 -32 -34 -63 -19 -31
-53 -94 -76 -141 -23 -47 -44 -86 -45 -88 -2 -2 -12 2 -22 9 -16 10 -27 7 -63
-16 -60 -38 -147 -51 -246 -38 -84 11 -95 10 -76 -9 7 -7 12 -24 12 -40 0 -42
-27 -56 -185 -93 -27 -6 -23 -9 47 -29 42 -13 84 -28 92 -36 23 -18 19 -54 -9
-88 -14 -17 -25 -32 -25 -35 0 -2 19 -1 43 4 23 4 85 8 138 9 82 0 102 -3 145
-25 28 -14 63 -38 79 -55 l28 -29 40 35 c74 67 113 78 264 71 l133 -5 -25 30
c-14 16 -25 40 -25 53 0 23 0 23 138 23 240 0 411 46 579 158 53 36 101 63
107 61 6 -3 47 -30 91 -62 532 -381 823 -962 790 -1580 -36 -690 -366 -1227
-945 -1537 -613 -329 -1591 -341 -2233 -28 -318 154 -596 412 -764 705 -214
375 -294 877 -207 1305 41 199 157 476 266 632 165 237 375 438 604 579 257
158 579 273 869 312 109 15 515 23 515 11z"/>
<path d="M4730 4273 c-77 -29 -92 -139 -28 -203 75 -75 178 7 148 119 -16 59
-75 101 -120 84z"/>
<path d="M4307 3829 c-15 -11 -32 -38 -38 -59 -22 -74 31 -160 100 -160 32 0
80 47 87 87 10 53 -11 110 -49 133 -41 25 -68 25 -100 -1z"/>
<path d="M4907 3489 c-9 -5 -24 -23 -32 -39 -49 -95 29 -216 116 -180 38 16
59 57 59 116 0 39 -5 51 -34 80 -35 35 -74 44 -109 23z"/>
<path d="M1963 2920 c-47 -19 -68 -112 -38 -170 34 -65 98 -79 146 -31 24 24
29 38 29 76 0 57 -21 100 -60 120 -33 17 -45 18 -77 5z"/>
<path d="M2624 2777 c-35 -30 -45 -108 -19 -156 34 -67 128 -73 160 -10 57
110 -54 241 -141 166z"/>
<path d="M2346 2179 c-54 -48 -39 -149 28 -190 73 -44 136 -6 136 81 0 43 -5
55 -32 85 -44 48 -94 56 -132 24z"/>
</g>
</svg>
