<?xml version="1.0" standalone="no"?>
<!DOCTYPE svg PUBLIC "-//W3C//DTD SVG 20010904//EN"
 "http://www.w3.org/TR/2001/REC-SVG-20010904/DTD/svg10.dtd">
<svg version="1.0" xmlns="http://www.w3.org/2000/svg"
 width="684.000000pt" height="684.000000pt" viewBox="0 0 684.000000 684.000000"
 preserveAspectRatio="xMidYMid meet">

<g transform="translate(0.000000,684.000000) scale(0.100000,-0.100000)"
fill="#000000" stroke="none">
<path d="M1343 6829 c-99 -15 -241 -54 -353 -98 -208 -81 -366 -189 -538 -365
-258 -266 -402 -569 -441 -928 -15 -134 -15 -3911 0 -4046 20 -185 63 -337
144 -507 187 -394 521 -688 935 -824 198 -65 45 -61 2346 -61 2093 0 2094 0
2192 21 576 125 1050 585 1188 1153 l24 101 0 2145 0 2145 -25 96 c-65 256
-198 496 -382 689 -229 241 -480 383 -815 462 l-93 22 -2060 2 c-1166 1 -2087
-2 -2122 -7z m2039 -1525 c434 -184 853 -449 1165 -740 537 -499 800 -1178
646 -1669 -121 -384 -488 -655 -1017 -751 -187 -34 -437 -17 -693 49 -297 76
-591 407 -728 817 -41 123 -60 145 -123 143 -45 -1 -92 -48 -92 -92 0 -50 60
-217 124 -344 86 -171 165 -285 280 -405 78 -81 97 -105 85 -112 -24 -16 -225
-60 -317 -71 -217 -25 -501 57 -711 204 -142 100 -276 262 -340 413 -115 271
-110 643 15 1024 70 213 238 518 388 704 262 326 611 608 1011 818 103 55 137
68 162 64 18 -3 83 -26 145 -52z m1962 -2866 c162 -114 394 -355 458 -476 l23
-43 -25 -20 c-41 -32 -377 -195 -485 -235 -478 -177 -875 -203 -1193 -78 -95
38 -247 124 -343 196 -89 65 -257 223 -249 232 3 3 55 -4 115 -15 233 -43 489
-34 718 26 310 81 527 201 722 400 l110 112 30 -18 c17 -10 70 -46 119 -81z
m-3574 -119 c221 -208 512 -331 823 -348 l118 -6 -42 -65 c-90 -139 -245 -273
-402 -345 -272 -126 -672 -123 -1120 7 -127 36 -123 24 -52 176 93 197 245
395 396 515 75 61 181 126 204 127 6 0 39 -27 75 -61z"/>
</g>
</svg>
