<?xml version="1.0" standalone="no"?>
<!DOCTYPE svg PUBLIC "-//W3C//DTD SVG 20010904//EN"
 "http://www.w3.org/TR/2001/REC-SVG-20010904/DTD/svg10.dtd">
<svg version="1.0" xmlns="http://www.w3.org/2000/svg"
 width="686.000000pt" height="684.000000pt" viewBox="0 0 686.000000 684.000000"
 preserveAspectRatio="xMidYMid meet">

<g transform="translate(0.000000,684.000000) scale(0.100000,-0.100000)"
fill="#000000" stroke="none">
<path d="M1405 6829 c-347 -37 -664 -184 -917 -427 -238 -229 -390 -503 -460
-828 l-23 -109 0 -2060 0 -2060 23 -105 c81 -367 270 -680 545 -904 184 -149
387 -252 611 -311 l98 -25 2142 0 2141 0 101 24 c173 42 360 128 524 240 112
76 324 292 399 406 114 175 194 363 243 576 l22 99 4 1990 c2 1462 0 2019 -8
2100 -38 356 -196 683 -454 940 -240 239 -494 373 -841 442 -84 16 -213 18
-2080 19 -1094 1 -2026 -2 -2070 -7z m3060 -784 c294 -25 570 -198 683 -426
148 -300 133 -795 -36 -1123 -82 -161 -216 -315 -412 -478 -83 -69 -113 -121
-113 -197 0 -60 13 -93 68 -170 159 -224 242 -600 206 -935 -90 -822 -625
-1548 -1356 -1836 -115 -46 -324 -97 -450 -111 -323 -35 -660 49 -914 227 -87
62 -223 201 -288 296 -226 327 -297 758 -201 1208 72 341 257 697 474 915 108
108 211 184 385 285 160 92 203 126 230 185 26 57 23 114 -11 222 -90 281 -42
619 139 984 140 280 356 518 628 692 164 105 375 196 553 239 78 18 278 38
325 32 11 -2 52 -6 90 -9z"/>
<path d="M4699 5461 c-22 -18 -24 -26 -21 -95 4 -96 -13 -295 -34 -394 -22
-109 -69 -224 -113 -280 -49 -61 -199 -212 -211 -212 -5 0 -33 48 -64 106
l-55 106 47 57 c90 107 232 383 232 449 0 60 -72 83 -109 36 -12 -15 -21 -32
-21 -38 0 -17 -70 -160 -75 -154 -3 3 -25 65 -50 138 -25 73 -52 141 -61 151
-36 40 -104 12 -104 -42 0 -13 29 -109 64 -214 41 -121 61 -195 56 -205 -5 -8
-33 -43 -64 -77 -53 -58 -178 -144 -433 -297 -62 -37 -93 -68 -93 -94 0 -20
46 -62 68 -62 11 0 113 59 227 130 115 72 211 130 214 130 8 0 111 -202 111
-216 0 -10 -108 -103 -262 -227 -54 -43 -63 -82 -28 -117 26 -26 48 -25 92 5
20 14 43 25 50 25 7 0 69 -18 138 -40 132 -42 160 -46 191 -30 22 12 27 81 7
98 -7 5 -60 25 -117 42 l-105 33 35 31 c19 17 91 81 159 141 137 123 264 259
300 323 20 36 31 44 79 58 206 58 219 64 229 93 7 20 7 36 -2 52 -15 32 -61
35 -151 10 -38 -11 -70 -19 -71 -18 -1 1 4 31 12 67 23 115 34 231 34 372 0
125 -2 140 -20 158 -25 25 -51 25 -81 1z"/>
<path d="M3720 3160 c-41 -41 -30 -58 163 -261 100 -105 186 -197 191 -204 7
-9 -1 -42 -23 -102 -39 -104 -181 -403 -191 -403 -6 0 -345 138 -557 225 l-33
14 80 125 c44 68 80 135 80 149 0 32 -30 57 -69 57 -29 0 -36 -7 -89 -91 -138
-219 -294 -423 -402 -522 -62 -57 -207 -153 -248 -164 -18 -4 -63 22 -205 116
-205 136 -233 145 -265 85 -22 -42 -4 -63 156 -169 175 -117 172 -102 32 -145
-41 -13 -83 -32 -92 -43 -37 -40 -10 -97 46 -97 87 0 392 124 525 215 30 20
59 37 64 38 5 1 20 -36 33 -83 13 -47 52 -179 85 -293 33 -115 59 -214 56
-221 -3 -6 -57 -41 -122 -75 -126 -69 -147 -92 -127 -136 18 -39 56 -42 121
-11 183 89 393 229 573 382 l87 75 68 -133 c67 -131 68 -133 105 -136 28 -2
40 2 52 20 9 12 16 28 16 35 0 8 -31 77 -70 154 -38 77 -70 146 -70 153 0 8
19 35 42 61 95 106 192 254 291 442 l62 118 199 3 c219 3 236 7 236 62 0 54
-19 60 -208 60 -95 0 -172 2 -172 4 0 2 16 46 36 98 84 218 174 505 174 557 0
64 -87 80 -117 21 -7 -14 -31 -88 -53 -165 -23 -77 -44 -142 -46 -145 -3 -3
-28 20 -57 50 -28 30 -104 110 -169 178 -127 130 -148 142 -188 102z m-255
-949 c138 -56 264 -107 280 -113 17 -6 34 -15 39 -19 20 -18 -104 -177 -260
-334 -105 -105 -314 -275 -338 -275 -10 0 -187 585 -186 616 0 6 12 21 26 35
14 13 58 63 97 112 39 48 76 86 82 83 5 -2 123 -50 260 -105z"/>
</g>
</svg>
