<?xml version="1.0" standalone="no"?>
<!DOCTYPE svg PUBLIC "-//W3C//DTD SVG 20010904//EN"
 "http://www.w3.org/TR/2001/REC-SVG-20010904/DTD/svg10.dtd">
<svg version="1.0" xmlns="http://www.w3.org/2000/svg"
 width="684.000000pt" height="684.000000pt" viewBox="0 0 684.000000 684.000000"
 preserveAspectRatio="xMidYMid meet">

<g transform="translate(0.000000,684.000000) scale(0.100000,-0.100000)"
fill="#000000" stroke="none">
<path d="M1365 6833 c-78 -10 -236 -47 -314 -75 -222 -78 -398 -187 -569 -353
-228 -220 -359 -445 -445 -764 l-32 -116 0 -2095 0 -2095 23 -104 c72 -322
219 -582 459 -812 211 -202 476 -341 760 -398 100 -21 122 -21 2183 -21 l2083
0 115 26 c576 129 1017 555 1179 1139 l28 100 2 2115 c3 1896 2 2124 -13 2200
-74 396 -321 770 -659 995 -153 102 -329 179 -530 233 l-100 27 -2070 1
c-1138 1 -2083 -1 -2100 -3z m1330 -1242 c208 -55 409 -192 538 -366 142 -192
206 -401 194 -643 -7 -145 -34 -257 -92 -380 -96 -202 -251 -360 -450 -460
-158 -80 -274 -106 -460 -105 -106 1 -148 6 -227 26 -182 48 -323 129 -460
264 -124 122 -209 265 -259 434 -26 91 -38 340 -20 443 69 394 378 711 781
801 98 22 350 14 455 -14z m1966 -1415 c168 -49 283 -115 397 -227 371 -362
386 -934 35 -1309 -157 -167 -352 -265 -584 -292 -168 -20 -350 12 -502 88
-254 127 -427 339 -502 614 -22 84 -31 300 -16 383 57 299 242 548 506 679
151 75 263 99 445 94 108 -3 152 -9 221 -30z m-1596 -1005 c98 -24 192 -62
267 -107 53 -33 58 -38 78 -102 62 -195 202 -395 363 -519 35 -27 45 -62 53
-178 36 -503 -334 -964 -838 -1045 -106 -17 -300 -8 -403 19 -234 62 -449 217
-585 423 -114 174 -154 314 -154 543 0 135 3 173 23 245 45 169 127 314 250
443 151 158 351 261 577 297 87 13 276 4 369 -19z"/>
<path d="M2721 5264 c2 -5 18 -36 36 -70 43 -82 63 -166 63 -262 0 -172 -50
-294 -169 -413 -119 -119 -241 -169 -414 -169 -99 0 -175 18 -260 62 -34 18
-65 34 -69 36 -18 8 -5 -32 38 -119 79 -157 216 -276 386 -337 64 -23 89 -26
208 -26 107 -1 146 3 190 18 103 35 209 97 274 160 217 210 269 530 129 799
-52 102 -181 229 -283 279 -78 39 -135 57 -129 42z"/>
<path d="M4390 3894 c-111 -24 -205 -77 -296 -168 -126 -125 -179 -255 -178
-431 2 -261 154 -477 402 -572 89 -34 245 -43 346 -19 208 49 397 232 450 438
7 29 12 54 11 56 -2 2 -27 -10 -56 -27 -86 -47 -159 -64 -258 -59 -106 6 -181
33 -264 96 -204 156 -243 453 -86 653 16 20 29 40 29 43 0 9 -27 6 -100 -10z"/>
<path d="M2686 2871 c-3 -5 14 -16 39 -25 67 -26 139 -97 177 -174 30 -61 33
-75 33 -157 -1 -77 -5 -98 -28 -146 -34 -70 -109 -142 -185 -177 -83 -38 -192
-38 -279 2 -82 38 -162 120 -191 199 -26 69 -29 173 -7 238 l15 44 -45 -49
c-94 -100 -149 -259 -149 -426 0 -257 138 -482 366 -595 205 -101 402 -100
608 1 345 171 471 605 273 944 -70 118 -205 233 -332 281 -98 37 -282 62 -295
40z"/>
</g>
</svg>
