<?xml version="1.0" standalone="no"?>
<!DOCTYPE svg PUBLIC "-//W3C//DTD SVG 20010904//EN"
 "http://www.w3.org/TR/2001/REC-SVG-20010904/DTD/svg10.dtd">
<svg version="1.0" xmlns="http://www.w3.org/2000/svg"
 width="684.000000pt" height="684.000000pt" viewBox="0 0 684.000000 684.000000"
 preserveAspectRatio="xMidYMid meet">

<g transform="translate(0.000000,684.000000) scale(0.100000,-0.100000)"
fill="#000000" stroke="none">
<path d="M1285 6824 c-315 -56 -615 -213 -840 -438 -214 -216 -342 -438 -416
-724 l-29 -113 0 -2134 0 -2133 29 -113 c130 -517 528 -941 1038 -1108 199
-65 46 -61 2352 -61 l2097 0 120 29 c141 35 217 62 334 121 441 221 755 639
846 1125 18 96 19 190 19 2150 l0 2050 -23 105 c-85 386 -288 711 -590 943
-140 108 -363 220 -532 266 -196 53 -90 51 -2289 50 -1709 -1 -2049 -3 -2116
-15z m885 -784 c257 -31 536 -116 785 -239 409 -202 701 -459 836 -735 42 -86
46 -105 27 -139 -17 -33 -39 -46 -76 -47 -52 0 -68 14 -116 108 -124 238 -395
474 -741 642 -324 158 -595 232 -855 233 -201 1 -301 -35 -421 -153 -92 -91
-122 -156 -127 -276 -4 -80 -1 -103 23 -177 25 -76 27 -89 15 -117 -8 -19 -27
-38 -45 -47 -87 -42 -151 51 -176 255 -24 193 43 370 193 507 178 162 390 220
678 185z m-422 -1134 c262 -109 465 -164 813 -221 123 -20 319 -52 434 -71
672 -111 1017 -245 1095 -426 31 -73 25 -185 -17 -283 -113 -271 -448 -560
-760 -659 -426 -134 -755 26 -1162 564 -107 142 -173 242 -286 435 -154 262
-315 618 -315 696 0 30 1 31 33 25 19 -3 93 -31 165 -60z m2780 -1051 c161
-76 361 -234 472 -372 99 -122 130 -200 105 -259 -12 -30 -50 -51 -474 -263
-253 -126 -482 -242 -508 -258 -41 -24 -59 -28 -123 -28 -65 0 -85 5 -143 33
-125 62 -217 182 -217 284 0 57 12 90 48 132 15 18 106 125 203 237 96 112
224 265 283 339 176 221 157 204 222 197 34 -3 86 -20 132 -42z m715 -909 c44
-19 71 -50 106 -126 127 -271 115 -735 -22 -821 -24 -15 -42 -18 -72 -14 -604
93 -1070 168 -1105 180 -102 34 -156 113 -132 194 20 65 82 116 227 186 327
157 911 414 943 414 12 1 37 -5 55 -13z m-2923 -693 c270 -275 407 -433 416
-479 15 -79 -32 -170 -105 -206 -42 -20 -53 -21 -255 -15 -313 10 -514 36
-598 78 -47 24 -65 72 -48 125 14 41 71 108 114 135 l29 17 -70 45 c-88 57
-117 91 -109 132 25 121 246 386 341 407 11 2 31 -1 45 -8 15 -7 123 -111 240
-231z m2135 -333 c757 -148 795 -157 821 -181 78 -74 -35 -267 -259 -440 -198
-154 -384 -218 -482 -167 -77 41 -552 633 -575 718 -16 61 13 111 76 130 45
13 38 14 419 -60z m-1195 -210 c186 -17 217 -22 231 -39 51 -61 19 -371 -52
-513 -51 -101 -96 -105 -195 -16 -138 124 -336 324 -361 366 -48 82 -30 177
40 207 43 19 85 18 337 -5z m627 -36 c40 -30 433 -619 440 -660 8 -47 -33 -87
-115 -116 -59 -20 -85 -23 -217 -22 -192 0 -309 30 -384 98 -45 41 -44 52 14
293 69 282 92 360 117 396 37 52 85 55 145 11z"/>
</g>
</svg>
