<?xml version="1.0" standalone="no"?>
<!DOCTYPE svg PUBLIC "-//W3C//DTD SVG 20010904//EN"
 "http://www.w3.org/TR/2001/REC-SVG-20010904/DTD/svg10.dtd">
<svg version="1.0" xmlns="http://www.w3.org/2000/svg"
 width="684.000000pt" height="684.000000pt" viewBox="0 0 684.000000 684.000000"
 preserveAspectRatio="xMidYMid meet">

<g transform="translate(0.000000,684.000000) scale(0.100000,-0.100000)"
fill="#000000" stroke="none">
<path d="M1430 6833 c-453 -43 -852 -264 -1121 -622 -129 -172 -224 -375 -280
-601 l-24 -95 0 -2110 0 -2110 31 -115 c82 -302 210 -525 424 -740 207 -208
431 -336 718 -411 l113 -29 2129 0 c2071 0 2132 1 2212 19 191 45 403 140 565
254 114 81 281 248 363 364 118 169 182 305 248 528 l27 90 3 2115 c3 2334 7
2171 -60 2380 -108 339 -341 642 -648 843 -193 126 -445 213 -689 237 -94 9
-3916 13 -4011 3z m1436 -808 c172 -131 502 -1094 575 -1680 20 -157 15 -364
-10 -460 -51 -193 -173 -298 -389 -333 -79 -13 -113 -14 -206 -5 -197 21 -444
97 -665 207 -71 36 -122 52 -216 71 -503 102 -828 290 -927 535 -32 79 -31
232 1 309 84 203 343 486 705 769 267 209 603 431 816 538 172 87 250 99 316
49z m1494 -1695 c107 -35 297 -122 463 -211 430 -233 794 -486 1018 -709 196
-194 263 -313 262 -465 -1 -263 -223 -480 -675 -659 -64 -25 -164 -59 -223
-75 -74 -21 -131 -45 -188 -80 -104 -62 -320 -170 -412 -205 -331 -124 -598
-108 -760 45 -65 62 -105 138 -132 254 -25 111 -25 531 1 715 44 314 98 571
181 860 85 297 154 467 213 523 54 51 112 53 252 7z m-1930 -1220 c399 -40
637 -129 733 -273 20 -29 45 -82 57 -118 31 -91 24 -258 -15 -374 -62 -181
-191 -396 -359 -597 -77 -92 -111 -144 -165 -250 -131 -260 -314 -503 -459
-610 -165 -122 -349 -155 -499 -88 -190 84 -395 368 -612 850 -192 426 -372
999 -371 1185 1 56 31 118 71 143 100 61 448 119 854 142 189 10 616 5 765
-10z"/>
<path d="M2601 5765 c-151 -79 -441 -266 -626 -405 -387 -291 -681 -592 -749
-768 -84 -219 180 -424 704 -548 80 -19 156 -34 168 -34 13 0 75 -25 137 -55
145 -71 321 -138 455 -172 87 -23 126 -28 230 -28 117 0 129 2 182 28 114 56
143 126 143 342 -1 314 -123 833 -312 1325 -59 156 -168 390 -180 390 -5 0
-73 -34 -152 -75z m-49 -462 c10 -9 18 -24 18 -33 0 -10 -29 -77 -64 -151
-118 -248 -210 -521 -242 -725 -9 -60 -22 -115 -27 -121 -12 -16 -59 -17 -75
-1 -39 39 31 373 133 634 62 157 171 386 192 402 23 16 43 15 65 -5z"/>
<path d="M4215 4096 c-73 -166 -168 -501 -229 -806 -64 -319 -86 -516 -86
-755 0 -339 53 -447 234 -478 167 -28 464 66 746 238 135 82 133 81 259 115
501 138 819 392 747 598 -63 178 -367 445 -850 746 -204 128 -517 291 -681
356 -121 48 -112 49 -140 -14z m269 -491 c9 -9 20 -35 26 -58 70 -279 212
-616 339 -809 55 -83 63 -121 30 -138 -48 -26 -89 15 -192 195 -109 190 -286
661 -289 768 -2 49 52 75 86 42z"/>
<path d="M1690 2913 c-225 -11 -555 -52 -685 -85 l-50 -13 3 -40 c5 -71 61
-285 123 -470 234 -698 529 -1225 736 -1317 186 -82 461 166 684 620 55 112
87 163 132 212 133 146 289 379 344 513 76 186 76 324 0 405 -75 81 -332 148
-652 172 -127 9 -473 11 -635 3z m-19 -431 c178 -90 318 -175 463 -283 117
-87 242 -201 251 -229 9 -27 -11 -59 -40 -66 -21 -5 -39 7 -112 74 -169 152
-378 291 -634 420 -126 63 -155 81 -157 100 -4 29 24 62 53 62 12 0 91 -35
176 -78z"/>
</g>
</svg>
