<?xml version="1.0" standalone="no"?>
<!DOCTYPE svg PUBLIC "-//W3C//DTD SVG 20010904//EN"
 "http://www.w3.org/TR/2001/REC-SVG-20010904/DTD/svg10.dtd">
<svg version="1.0" xmlns="http://www.w3.org/2000/svg"
 width="684.000000pt" height="684.000000pt" viewBox="0 0 684.000000 684.000000"
 preserveAspectRatio="xMidYMid meet">

<g transform="translate(0.000000,684.000000) scale(0.100000,-0.100000)"
fill="#000000" stroke="none">
<path d="M1237 6819 c-154 -32 -228 -58 -372 -130 -174 -86 -299 -175 -427
-304 -127 -129 -212 -248 -292 -410 -71 -144 -98 -218 -127 -345 -18 -82 -19
-164 -19 -2210 0 -2046 1 -2128 19 -2210 64 -286 202 -532 425 -756 192 -192
388 -313 636 -392 206 -66 67 -62 2332 -62 2029 0 2058 0 2163 20 289 56 560
198 777 408 165 159 264 300 353 501 66 150 106 292 125 451 14 116 14 3964 0
4080 -30 248 -118 485 -258 695 -228 341 -592 584 -994 665 -99 20 -132 20
-2177 19 -1991 -1 -2080 -2 -2164 -20z m2169 -1430 c336 -32 675 -146 924
-309 232 -153 380 -313 489 -527 67 -135 148 -446 188 -728 26 -184 26 -649 0
-815 -43 -276 -107 -491 -204 -685 -221 -444 -549 -699 -1058 -824 -649 -158
-1389 19 -1714 411 -148 177 -241 486 -241 794 0 183 14 255 105 533 113 347
121 414 95 822 -20 314 2 461 100 666 93 196 247 390 379 477 151 101 331 157
606 189 67 8 228 6 331 -4z"/>
<path d="M2426 4071 c-3 -5 1 -78 10 -162 9 -85 17 -210 17 -279 2 -148 -10
-196 -103 -430 -33 -84 -60 -158 -60 -166 0 -30 42 -11 106 48 143 135 234
323 234 488 0 127 -35 261 -102 391 -51 100 -86 137 -102 110z"/>
</g>
</svg>
