<?xml version="1.0" standalone="no"?>
<!DOCTYPE svg PUBLIC "-//W3C//DTD SVG 20010904//EN"
 "http://www.w3.org/TR/2001/REC-SVG-20010904/DTD/svg10.dtd">
<svg version="1.0" xmlns="http://www.w3.org/2000/svg"
 width="684.000000pt" height="684.000000pt" viewBox="0 0 684.000000 684.000000"
 preserveAspectRatio="xMidYMid meet">

<g transform="translate(0.000000,684.000000) scale(0.100000,-0.100000)"
fill="#000000" stroke="none">
<path d="M1410 6833 c-190 -19 -379 -75 -565 -168 -372 -185 -653 -510 -783
-905 -66 -201 -62 -29 -62 -2360 l0 -2118 29 -113 c68 -272 193 -497 385 -697
214 -222 438 -358 732 -444 l79 -23 2155 -3 c1579 -2 2171 0 2215 8 101 20
245 69 360 125 446 216 761 626 862 1120 17 85 18 195 18 2155 0 1941 -1 2070
-18 2147 -48 223 -124 406 -244 587 -85 129 -291 337 -415 419 -181 121 -400
211 -613 254 -85 17 -207 18 -2095 19 -1103 0 -2021 -1 -2040 -3z m2073 -818
c191 -50 504 -274 830 -595 331 -325 510 -576 512 -716 1 -138 -156 -204 -486
-204 l-96 0 24 -122 c60 -318 103 -694 103 -913 0 -329 -107 -650 -262 -790
-49 -44 -50 -46 -34 -64 10 -11 23 -39 30 -63 12 -41 15 -44 82 -67 104 -37
219 -36 296 2 67 33 130 99 146 155 19 63 14 193 -14 356 -59 342 -25 512 133
656 60 55 167 110 253 131 91 23 250 16 353 -15 187 -56 401 -191 456 -288
106 -185 -25 -413 -237 -412 -86 0 -136 23 -227 103 -85 75 -175 121 -238 121
-67 0 -71 -10 -63 -148 18 -329 18 -372 7 -452 -41 -275 -205 -472 -466 -557
-67 -21 -98 -26 -190 -25 -61 0 -135 7 -167 15 -42 10 -58 11 -58 3 0 -6 24
-61 54 -121 131 -265 291 -352 663 -359 143 -3 155 -5 196 -29 46 -27 77 -75
77 -118 0 -62 -63 -136 -145 -170 -47 -20 -338 -16 -460 6 -186 33 -348 97
-472 189 -35 25 -63 44 -63 41 0 -20 56 -145 85 -192 47 -73 143 -173 217
-224 82 -56 101 -84 95 -138 -9 -83 -82 -140 -191 -148 -74 -6 -123 12 -221
82 -147 105 -262 238 -338 393 l-42 87 -6 -190 c-4 -104 -7 -222 -8 -261 -1
-87 -25 -128 -91 -161 -91 -47 -231 -21 -283 51 -21 29 -22 44 -28 281 -4 138
-8 257 -8 265 -1 8 -15 -14 -31 -49 -91 -197 -320 -433 -470 -486 -153 -54
-324 53 -289 180 10 35 17 42 126 121 68 49 144 133 191 209 33 54 77 163 69
171 -3 3 -26 -11 -51 -30 -77 -58 -165 -103 -276 -140 -153 -50 -277 -69 -465
-70 -147 -1 -164 1 -210 22 -88 41 -125 90 -125 166 0 34 6 52 27 77 44 52 81
61 243 64 371 7 537 100 666 371 58 121 58 125 -8 107 -75 -21 -248 -20 -326
0 -220 58 -398 221 -465 426 -44 133 -52 246 -33 474 16 190 15 244 -8 259
-48 33 -187 -23 -294 -117 -91 -79 -132 -98 -217 -98 -83 -1 -126 16 -185 70
-60 53 -90 121 -90 203 0 125 67 211 247 318 324 194 658 183 873 -29 136
-134 167 -300 114 -606 -51 -297 -43 -394 39 -477 70 -70 126 -91 232 -90 67
1 108 7 160 25 66 23 70 27 77 62 4 21 15 48 24 62 15 24 15 25 -38 77 -96 94
-173 256 -224 473 -29 123 -26 556 5 790 19 140 64 416 87 526 l5 26 -158 6
c-305 12 -423 69 -423 202 0 131 173 379 474 681 195 195 378 350 549 465 140
94 197 124 292 155 84 28 95 28 168 9z"/>
</g>
</svg>
