<?xml version="1.0" standalone="no"?>
<!DOCTYPE svg PUBLIC "-//W3C//DTD SVG 20010904//EN"
 "http://www.w3.org/TR/2001/REC-SVG-20010904/DTD/svg10.dtd">
<svg version="1.0" xmlns="http://www.w3.org/2000/svg"
 width="684.000000pt" height="684.000000pt" viewBox="0 0 684.000000 684.000000"
 preserveAspectRatio="xMidYMid meet">

<g transform="translate(0.000000,684.000000) scale(0.100000,-0.100000)"
fill="#000000" stroke="none">
<path d="M1370 6823 c-63 -6 -183 -34 -285 -65 -379 -115 -712 -393 -908 -758
-61 -113 -103 -221 -141 -360 l-31 -115 0 -2110 c0 -2002 1 -2114 18 -2190 43
-188 134 -404 234 -552 215 -320 537 -548 913 -648 l95 -25 2147 0 c2338 0
2188 -4 2366 55 115 38 306 135 407 206 121 87 306 272 382 384 129 191 212
382 253 585 20 96 20 138 20 2173 0 2286 4 2130 -62 2336 -171 536 -605 930
-1170 1063 l-93 22 -2055 2 c-1130 0 -2071 -1 -2090 -3z m3450 -1264 c277 -69
493 -251 620 -521 84 -182 115 -362 107 -637 -5 -188 -17 -268 -65 -431 -58
-197 -212 -531 -361 -784 -45 -77 -80 -142 -79 -146 2 -3 37 -35 78 -71 92
-80 180 -182 180 -209 0 -26 -34 -60 -60 -60 -13 0 -50 31 -98 81 -42 45 -98
99 -124 121 l-47 39 -89 -133 c-50 -73 -108 -158 -131 -189 l-40 -56 31 -49
c17 -27 53 -95 80 -152 58 -123 62 -170 15 -186 -19 -7 -34 -7 -45 0 -9 6 -46
70 -82 142 -36 72 -68 133 -71 136 -3 3 -28 -25 -55 -62 -75 -103 -323 -411
-458 -568 -67 -78 -140 -167 -163 -197 -157 -209 -567 -346 -873 -293 -389 67
-943 311 -1292 568 -113 83 -284 258 -331 338 -53 92 -78 179 -79 275 -2 133
34 226 137 355 28 36 89 115 135 175 272 358 718 894 1030 1237 60 66 61 68
38 77 -36 14 -159 49 -198 56 -54 11 -80 31 -80 64 0 15 9 36 20 46 19 18 24
18 97 2 43 -9 121 -31 174 -48 l97 -31 227 229 c125 125 267 264 315 308 100
90 100 90 -18 101 -37 4 -75 13 -84 22 -24 20 -23 57 3 83 17 17 28 19 77 14
31 -4 94 -15 139 -26 l83 -20 82 64 c263 203 518 320 784 356 100 14 275 5
374 -20z"/>
<path d="M4410 5375 c-164 -31 -336 -106 -512 -224 -145 -97 -142 -91 -81
-154 175 -181 215 -249 167 -284 -19 -14 -53 -17 -69 -5 -5 4 -28 30 -50 57
-55 69 -186 205 -197 205 -25 0 -648 -601 -648 -625 0 -6 19 -29 41 -50 52
-49 179 -241 179 -270 0 -31 -28 -65 -54 -65 -32 0 -47 16 -94 95 -49 83 -127
184 -149 192 -11 4 -25 -4 -42 -24 -14 -16 -96 -108 -181 -204 -259 -290 -706
-826 -697 -835 2 -2 46 7 98 20 104 27 244 46 330 46 148 0 374 -68 592 -178
486 -246 878 -631 983 -965 10 -31 23 -56 28 -54 25 8 446 542 446 565 0 14
-87 88 -234 197 -98 73 -122 95 -124 118 -5 37 13 57 52 57 35 0 164 -87 309
-208 43 -35 79 -63 81 -61 27 31 204 304 201 309 -3 5 -24 11 -46 15 -72 12
-103 70 -59 110 21 19 37 18 160 -11 23 -5 31 4 97 118 368 634 478 1034 398
1456 -64 336 -260 570 -540 647 -84 23 -290 28 -385 10z m-120 -396 c169 -90
271 -227 287 -387 7 -59 -12 -92 -52 -92 -32 0 -51 27 -70 99 -34 131 -81 191
-210 268 -79 47 -95 62 -95 86 0 29 29 57 58 57 13 0 50 -14 82 -31z"/>
</g>
</svg>
