<?xml version="1.0" standalone="no"?>
<!DOCTYPE svg PUBLIC "-//W3C//DTD SVG 20010904//EN"
 "http://www.w3.org/TR/2001/REC-SVG-20010904/DTD/svg10.dtd">
<svg version="1.0" xmlns="http://www.w3.org/2000/svg"
 width="684.000000pt" height="684.000000pt" viewBox="0 0 684.000000 684.000000"
 preserveAspectRatio="xMidYMid meet">

<g transform="translate(0.000000,684.000000) scale(0.100000,-0.100000)"
fill="#000000" stroke="none">
<path d="M964 6801 c-190 -78 -349 -188 -538 -371 -129 -125 -250 -275 -313
-385 -22 -38 -45 -79 -51 -90 -6 -11 -23 -46 -37 -79 l-25 -58 0 -2430 0
-2429 26 -62 c75 -178 210 -362 410 -557 150 -147 237 -213 380 -291 l91 -49
2513 0 2513 0 56 27 c140 68 274 166 424 313 187 181 290 314 379 489 l48 94
0 2467 0 2467 -48 94 c-73 141 -173 278 -306 416 -215 224 -367 333 -599 433
l-94 40 -2369 -1 -2369 0 -91 -38z m3589 -1931 c39 -46 53 -127 39 -214 -24
-136 -105 -271 -252 -415 -72 -71 -195 -171 -210 -171 -4 0 -12 18 -18 40 -13
50 1 177 35 330 46 207 96 316 182 393 54 49 94 66 153 67 39 0 50 -4 71 -30z
m-2088 -132 c-13 -60 -77 -222 -130 -328 -116 -230 -223 -328 -370 -338 -60
-3 -74 -1 -96 17 -82 64 -43 266 76 399 75 84 278 205 435 261 82 29 93 28 85
-11z m815 -225 c-82 -134 -80 -385 4 -569 l25 -54 -56 -71 c-62 -79 -52 -79
-122 6 -40 48 -41 52 -41 123 0 256 57 466 154 568 56 58 73 56 36 -3z m378
-99 c129 -64 216 -248 257 -545 9 -64 15 -156 13 -203 l-3 -86 -55 37 c-76 51
-234 213 -296 303 -64 93 -100 177 -114 266 -13 78 -7 131 21 190 32 69 90 81
177 38z m-1020 -493 c140 -72 337 -258 416 -392 37 -64 70 -199 62 -254 l-7
-43 -35 8 c-50 11 -103 -6 -146 -47 l-36 -35 -31 21 c-104 74 -187 249 -240
509 -23 111 -38 252 -27 252 4 0 23 -9 44 -19z m2460 -102 c101 -35 87 -212
-27 -340 -69 -78 -207 -147 -389 -194 -95 -25 -252 -44 -252 -31 0 15 65 133
114 210 127 196 252 315 369 352 52 16 144 18 185 3z m-2562 -766 c-23 -275
-109 -543 -210 -650 -76 -83 -180 -118 -244 -84 -36 19 -55 76 -54 161 1 156
62 273 231 440 95 95 245 210 273 210 7 0 9 -25 4 -77z m1815 -100 c69 -26
124 -60 166 -104 33 -35 72 -111 73 -140 0 -15 -4 -15 -42 -2 -60 21 -189 20
-263 -1 -33 -10 -86 -31 -117 -48 l-57 -30 -82 58 c-92 65 -259 225 -259 247
0 9 20 18 58 25 31 7 66 14 77 16 11 3 103 3 205 2 157 -3 194 -6 241 -23z
m-1211 -57 c93 -106 227 -328 264 -439 57 -171 28 -366 -60 -403 -74 -31 -164
24 -223 136 -39 72 -47 99 -66 205 -24 128 -17 475 11 554 5 15 27 0 74 -53z
m1377 -453 c83 -38 75 -179 -19 -309 -67 -94 -247 -183 -458 -228 -89 -19
-200 -30 -200 -20 0 39 149 275 243 385 74 87 116 121 195 157 93 43 168 48
239 15z"/>
</g>
</svg>
